<?xml version="1.0" encoding="UTF-8" standalone="no"?>
<svg
   xmlns:dc="http://purl.org/dc/elements/1.1/"
   xmlns:cc="http://creativecommons.org/ns#"
   xmlns:rdf="http://www.w3.org/1999/02/22-rdf-syntax-ns#"
   xmlns:svg="http://www.w3.org/2000/svg"
   xmlns="http://www.w3.org/2000/svg"
   xmlns:sodipodi="http://sodipodi.sourceforge.net/DTD/sodipodi-0.dtd"
   xmlns:inkscape="http://www.inkscape.org/namespaces/inkscape"
   version="1.1"
   id="svg2"
   xml:space="preserve"
   width="182.12975"
   height="84.431496"
   viewBox="0 0 182.12974 84.431499"
   sodipodi:docname="estable0.svg"
   inkscape:version="1.0.2 (e86c870879, 2021-01-15, custom)"><metadata
     id="metadata8"><rdf:RDF><cc:Work
         rdf:about=""><dc:format>image/svg+xml</dc:format><dc:type
           rdf:resource="http://purl.org/dc/dcmitype/StillImage" /></cc:Work></rdf:RDF></metadata><defs
     id="defs6" /><sodipodi:namedview
     pagecolor="#ffffff"
     bordercolor="#666666"
     borderopacity="1"
     objecttolerance="10"
     gridtolerance="10"
     guidetolerance="10"
     inkscape:pageopacity="0"
     inkscape:pageshadow="2"
     inkscape:window-width="1559"
     inkscape:window-height="892"
     id="namedview4"
     showgrid="false"
     inkscape:snap-object-midpoints="true"
     inkscape:object-paths="true"
     showguides="false"
     inkscape:guide-bbox="true"
     inkscape:zoom="11.603372"
     inkscape:cx="17.372077"
     inkscape:cy="38.300852"
     inkscape:window-x="33"
     inkscape:window-y="0"
     inkscape:window-maximized="0"
     inkscape:current-layer="g10"
     inkscape:document-rotation="0"><sodipodi:guide
       position="68.219482,47.080176"
       orientation="0,-1"
       id="guide1240" /></sodipodi:namedview><g
     id="g10"
     inkscape:groupmode="layer"
     inkscape:label="estable-Inestable"
     transform="matrix(1.3333333,0,0,1.3333333,-14.768396,-372.69949)"><rect
       style="fill:#808080;stroke:#000000;stroke-width:0.717491;stroke-linecap:round;stroke-linejoin:round"
       id="rect1096"
       width="73.19294"
       height="8.586792"
       x="-12.256618"
       y="159.06122" /><rect
       style="fill:#ffffff;stroke:#000000;stroke-width:0.729372;stroke-linecap:round;stroke-linejoin:round"
       id="rect1094"
       width="138.10989"
       height="8.5749102"
       x="63.980137"
       y="159.06715" /><path
       d="M 26.188,1.457 V 95.039"
       style="fill:none;stroke:#000000;stroke-width:0.751181;stroke-linecap:butt;stroke-linejoin:miter;stroke-miterlimit:4;stroke-dasharray:none;stroke-opacity:1"
       id="path16" /><path
       d="m 26.188,8.969 3.003,3.008 -3.003,-10.52 -3.004,10.52 z"
       style="fill:#000000;fill-opacity:1;fill-rule:evenodd;stroke:#000000;stroke-width:0.80126;stroke-linecap:butt;stroke-linejoin:miter;stroke-miterlimit:4;stroke-dasharray:none;stroke-opacity:1"
       id="path20" /><path
       d="M 0,63.742 H 213.531"
       style="fill:none;stroke:#000000;stroke-width:0.749999;stroke-linecap:butt;stroke-linejoin:miter;stroke-miterlimit:4;stroke-dasharray:none;stroke-opacity:1"
       id="path24" /><path
       d="m 206.031,63.742 -3,3 10.5,-3 -10.5,-3 z"
       style="fill:#000000;fill-opacity:1;fill-rule:evenodd;stroke:#000000;stroke-width:0.799999;stroke-linecap:butt;stroke-linejoin:miter;stroke-miterlimit:4;stroke-dasharray:none;stroke-opacity:1"
       id="path28" /><path
       d="m 16.148,5.594 c 0,-0.77 -0.613,-1.258 -1.23,-1.258 -0.719,0 -1.258,0.562 -1.258,1.258 0,0.668 0.563,1.23 1.231,1.23 0.769,0 1.257,-0.617 1.257,-1.23 z"
       style="fill:#000000;fill-opacity:1;fill-rule:nonzero;stroke:none"
       id="path30" /><path
       d="m 19.246,10.934 c -0.82,0.152 -1.129,0.769 -1.129,1.257 0,0.614 0.488,0.821 0.848,0.821 0.769,0 1.308,-0.668 1.308,-1.36 0,-1.078 -1.234,-1.566 -2.312,-1.566 -1.563,0 -2.438,1.539 -2.668,2.027 -0.59,-1.925 -2.184,-2.027 -2.645,-2.027 -2.617,0 -4.003,3.363 -4.003,3.926 0,0.105 0.101,0.23 0.281,0.23 0.207,0 0.258,-0.152 0.308,-0.254 0.871,-2.851 2.594,-3.39 3.336,-3.39 1.157,0 1.387,1.078 1.387,1.695 0,0.566 -0.152,1.156 -0.461,2.387 l -0.875,3.519 c -0.383,1.539 -1.129,2.949 -2.488,2.949 -0.129,0 -0.77,0 -1.309,-0.332 0.922,-0.179 1.129,-0.949 1.129,-1.257 0,-0.516 -0.387,-0.821 -0.871,-0.821 -0.617,0 -1.285,0.539 -1.285,1.36 0,1.078 1.207,1.566 2.308,1.566 1.235,0 2.106,-0.976 2.645,-2.027 0.41,1.511 1.695,2.027 2.645,2.027 2.621,0 4.003,-3.363 4.003,-3.93 0,-0.129 -0.101,-0.23 -0.253,-0.23 -0.231,0 -0.258,0.129 -0.336,0.336 -0.692,2.258 -2.18,3.308 -3.336,3.308 -0.899,0 -1.387,-0.668 -1.387,-1.718 0,-0.567 0.102,-0.977 0.512,-2.672 L 15.5,13.27 c 0.383,-1.543 1.258,-2.672 2.438,-2.672 0.05,0 0.769,0 1.308,0.336 z"
       style="fill:#000000;fill-opacity:1;fill-rule:nonzero;stroke:none"
       id="path32" /><path
       d="m 54.777,93.711 c 0,0 7.707,-32.199 50.313,-50.93"
       style="fill:none;stroke:#000000;stroke-width:0.749999;stroke-linecap:butt;stroke-linejoin:miter;stroke-miterlimit:4;stroke-dasharray:none;stroke-opacity:1"
       id="path38" /><path
       d="m 129.594,43.77 c 0,0 32.195,7.703 50.929,50.308"
       style="fill:none;stroke:#000000;stroke-width:0.749999;stroke-linecap:butt;stroke-linejoin:miter;stroke-miterlimit:4;stroke-dasharray:none;stroke-opacity:1"
       id="path42" /><text
       style="font-variant:normal;font-weight:normal;font-size:20px;font-family:'LM Roman 10';-inkscape-font-specification:LMRoman10-Regular;writing-mode:lr-tb;fill:#000000;fill-opacity:1;fill-rule:nonzero;stroke:none"
       id="text48"
       x="129.29504"
       y="31.131014"><tspan
         x="129.29504 142.91505 150.79506 158.57506 168.57506 179.69507 185.25508"
         y="31.131014"
         sodipodi:role="line"
         id="tspan44">Estable</tspan><tspan
         x="39.582485 46.802486 57.922497 66.802498 74.682503 82.462509 92.462517 103.58252 109.14252"
         y="32.973518"
         sodipodi:role="line"
         id="tspan46">Inestable</tspan></text><path
       d="M 108.766,63.742 H 74.762"
       style="fill:none;stroke:#000000;stroke-width:0.751181;stroke-linecap:butt;stroke-linejoin:miter;stroke-miterlimit:4;stroke-dasharray:none;stroke-opacity:1"
       id="path52" /><path
       d="M 101.254,63.742 98.25,66.746 108.766,63.742 98.25,60.738 Z"
       style="fill:#000000;fill-opacity:1;fill-rule:evenodd;stroke:#000000;stroke-width:0.80126;stroke-linecap:butt;stroke-linejoin:miter;stroke-miterlimit:4;stroke-dasharray:none;stroke-opacity:1"
       id="path56" /><path
       d="M 40.758,63.742 H 74.762"
       style="fill:none;stroke:#000000;stroke-width:0.751181;stroke-linecap:butt;stroke-linejoin:miter;stroke-miterlimit:4;stroke-dasharray:none;stroke-opacity:1"
       id="path60" /><path
       d="m 48.273,63.742 3.004,-3.004 -10.519,3.004 10.519,3.004 z"
       style="fill:#000000;fill-opacity:1;fill-rule:evenodd;stroke:#000000;stroke-width:0.80126;stroke-linecap:butt;stroke-linejoin:miter;stroke-miterlimit:4;stroke-dasharray:none;stroke-opacity:1"
       id="path64" /><path
       d="m 80.578,63.742 c 0,3.211 -2.601,5.817 -5.816,5.817 -3.211,0 -5.817,-2.606 -5.817,-5.817 0,-3.211 2.606,-5.816 5.817,-5.816 3.215,0 5.816,2.605 5.816,5.816"
       style="fill:#ffffff;fill-opacity:1;fill-rule:nonzero;stroke:#000000;stroke-width:0.977953;stroke-linecap:butt;stroke-linejoin:miter;stroke-miterlimit:4;stroke-dasharray:none;stroke-opacity:1"
       id="path68" /><path
       d="m 193.914,63.742 h -34"
       style="fill:none;stroke:#000000;stroke-width:0.751178;stroke-linecap:butt;stroke-linejoin:miter;stroke-miterlimit:4;stroke-dasharray:none;stroke-opacity:1"
       id="path72" /><path
       d="m 186.402,63.742 -3.004,3.004 10.516,-3.004 -10.516,-3.004 z"
       style="fill:#000000;fill-opacity:1;fill-rule:evenodd;stroke:#000000;stroke-width:0.801257;stroke-linecap:butt;stroke-linejoin:miter;stroke-miterlimit:4;stroke-dasharray:none;stroke-opacity:1"
       id="path76" /><path
       d="m 125.91,63.742 h 34.004"
       style="fill:none;stroke:#000000;stroke-width:0.751178;stroke-linecap:butt;stroke-linejoin:miter;stroke-miterlimit:4;stroke-dasharray:none;stroke-opacity:1"
       id="path80" /><path
       d="m 133.422,63.742 3.004,-3.004 -10.516,3.004 10.516,3.004 z"
       style="fill:#000000;fill-opacity:1;fill-rule:evenodd;stroke:#000000;stroke-width:0.801257;stroke-linecap:butt;stroke-linejoin:miter;stroke-miterlimit:4;stroke-dasharray:none;stroke-opacity:1"
       id="path84" /><path
       d="m 165.727,63.742 c 0,3.211 -2.602,5.817 -5.813,5.817 -3.215,0 -5.816,-2.606 -5.816,-5.817 0,-3.211 2.601,-5.816 5.816,-5.816 3.211,0 5.813,2.605 5.813,5.816"
       style="fill:#000000;fill-opacity:1;fill-rule:nonzero;stroke:#000000;stroke-width:0.126733;stroke-linecap:butt;stroke-linejoin:miter;stroke-miterlimit:4;stroke-dasharray:none;stroke-opacity:1"
       id="path88" /><text
       xml:space="preserve"
       style="font-size:24px;line-height:1.25;font-family:'Latin Modern Roman';-inkscape-font-specification:'Latin Modern Roman, ';text-align:center;letter-spacing:0px;text-anchor:middle;stroke-width:0.75"
       x="209.02219"
       y="80.500977"
       id="text969"><tspan
         sodipodi:role="line"
         id="tspan967"
         x="209.02219"
         y="80.500977"
         style="stroke-width:0.75">r</tspan></text><path
       d="M -12.520589,163.35462 H 201.01041"
       style="fill:none;stroke:#000000;stroke-width:0.749999;stroke-linecap:butt;stroke-linejoin:miter;stroke-miterlimit:4;stroke-dasharray:none;stroke-opacity:1"
       id="path1008" /><path
       d="m 193.51041,163.35462 -3,3 10.5,-3 -10.5,-3 z"
       style="fill:#000000;fill-opacity:1;fill-rule:evenodd;stroke:#000000;stroke-width:0.799999;stroke-linecap:butt;stroke-linejoin:miter;stroke-miterlimit:4;stroke-dasharray:none;stroke-opacity:1"
       id="path1010" /><path
       d="m 96.245411,163.35462 h -34.004"
       style="fill:none;stroke:#000000;stroke-width:0.751181;stroke-linecap:butt;stroke-linejoin:miter;stroke-miterlimit:4;stroke-dasharray:none;stroke-opacity:1"
       id="path1026" /><path
       d="m 28.237411,163.35462 h 34.004"
       style="fill:none;stroke:#000000;stroke-width:0.751181;stroke-linecap:butt;stroke-linejoin:miter;stroke-miterlimit:4;stroke-dasharray:none;stroke-opacity:1"
       id="path1030" /><path
       d="m 56.424411,163.35462 c 0,3.211 2.601,5.817 5.816,5.817 3.211,0 5.817,-2.606 5.817,-5.817 0,-3.211 -2.606,-5.816 -5.817,-5.816 -3.215,0 -5.816,2.605 -5.816,5.816"
       style="fill:#ffffff;fill-opacity:1;fill-rule:nonzero;stroke:#000000;stroke-width:0.977953;stroke-linecap:butt;stroke-linejoin:miter;stroke-miterlimit:4;stroke-dasharray:none;stroke-opacity:1"
       id="path1034" /><path
       d="m 181.39341,163.35462 h -34"
       style="fill:none;stroke:#000000;stroke-width:0.751178;stroke-linecap:butt;stroke-linejoin:miter;stroke-miterlimit:4;stroke-dasharray:none;stroke-opacity:1"
       id="path1036" /><text
       xml:space="preserve"
       style="font-style:italic;font-variant:normal;font-weight:normal;font-stretch:normal;font-size:24px;line-height:1.25;font-family:'Latin Modern Roman';-inkscape-font-specification:'Latin Modern Roman,  Italic';text-align:center;letter-spacing:0px;text-anchor:middle;stroke-width:0.75"
       x="196.5016"
       y="180.1136"
       id="text1048"><tspan
         sodipodi:role="line"
         id="tspan1046"
         x="196.5016"
         y="180.1136"
         style="font-style:italic;font-variant:normal;font-weight:normal;font-stretch:normal;font-family:'Latin Modern Roman';-inkscape-font-specification:'Latin Modern Roman,  Italic';stroke-width:0.75">r</tspan></text><text
       xml:space="preserve"
       style="font-size:24px;line-height:1.25;font-family:'Latin Modern Roman';-inkscape-font-specification:'Latin Modern Roman, ';text-align:center;letter-spacing:0px;text-anchor:middle;stroke-width:0.75"
       x="100.3983"
       y="297.52463"
       id="text1052"><tspan
         sodipodi:role="line"
         id="tspan1050"
         x="100.3983"
         y="297.52463"
         style="font-style:italic;font-variant:normal;font-weight:normal;font-stretch:normal;font-family:'Latin Modern Roman';-inkscape-font-specification:'Latin Modern Roman,  Italic';stroke-width:0.75">n*=0</tspan></text><path
       d="M 16.865339,313.35462 H 141.01041"
       style="fill:none;stroke:#000000;stroke-width:0.645764;stroke-linecap:butt;stroke-linejoin:miter;stroke-miterlimit:4;stroke-dasharray:none;stroke-opacity:1"
       id="path1058"
       sodipodi:nodetypes="cc" /><path
       d="m 138.01041,313.35462 -3,3 10.5,-3 -10.5,-3 z"
       style="fill:#000000;fill-opacity:1;fill-rule:evenodd;stroke:#000000;stroke-width:0.799999;stroke-linecap:butt;stroke-linejoin:miter;stroke-miterlimit:4;stroke-dasharray:none;stroke-opacity:1"
       id="path1060" /><path
       d="m 79.733411,313.35462 -3.004,3.004 10.516,-3.004 -10.516,-3.004 z"
       style="fill:#000000;fill-opacity:1;fill-rule:evenodd;stroke:#000000;stroke-width:0.80126;stroke-linecap:butt;stroke-linejoin:miter;stroke-miterlimit:4;stroke-dasharray:none;stroke-opacity:1"
       id="path1070" /><path
       d="m 43.252411,313.35462 3.004,-3.004 -10.519,3.004 10.519,3.004 z"
       style="fill:#000000;fill-opacity:1;fill-rule:evenodd;stroke:#000000;stroke-width:0.80126;stroke-linecap:butt;stroke-linejoin:miter;stroke-miterlimit:4;stroke-dasharray:none;stroke-opacity:1"
       id="path1074" /><text
       xml:space="preserve"
       style="font-style:italic;font-variant:normal;font-weight:normal;font-stretch:normal;font-size:24px;line-height:1.25;font-family:'Latin Modern Roman';-inkscape-font-specification:'Latin Modern Roman, Italic';text-align:center;letter-spacing:0px;text-anchor:middle;stroke-width:0.75"
       x="141.0016"
       y="330.11362"
       id="text1090"><tspan
         sodipodi:role="line"
         id="tspan1088"
         x="141.0016"
         y="330.11362"
         style="font-style:italic;font-variant:normal;font-weight:normal;font-stretch:normal;font-family:'Latin Modern Roman';-inkscape-font-specification:'Latin Modern Roman,  Italic';stroke-width:0.75">r</tspan></text><path
       d="m 56.424411,163.35462 c 0,3.211 2.601,5.817 5.816,5.817 v -11.633 c -3.215,0 -5.816,2.605 -5.816,5.816"
       style="fill:#808080;fill-opacity:1;fill-rule:nonzero;stroke:#000000;stroke-width:0.977953;stroke-linecap:butt;stroke-linejoin:miter;stroke-miterlimit:4;stroke-dasharray:none;stroke-opacity:1"
       id="path1092"
       sodipodi:nodetypes="cccc" /><text
       xml:space="preserve"
       style="font-size:24px;line-height:1.25;font-family:'Latin Modern Roman';-inkscape-font-specification:'Latin Modern Roman, ';text-align:center;letter-spacing:0px;text-anchor:middle;stroke-width:0.75"
       x="62.120632"
       y="189.92433"
       id="text1100"><tspan
         sodipodi:role="line"
         id="tspan1098"
         x="62.120632"
         y="189.92433"
         style="stroke-width:0.75">1</tspan></text><text
       xml:space="preserve"
       style="font-size:24px;line-height:1.25;font-family:'Latin Modern Roman';-inkscape-font-specification:'Latin Modern Roman, ';text-align:center;letter-spacing:0px;text-anchor:middle;stroke-width:0.75"
       x="21.515472"
       y="156.19359"
       id="text1104"><tspan
         sodipodi:role="line"
         id="tspan1102"
         x="21.515472"
         y="156.19359"
         style="stroke-width:0.75">Estable</tspan></text><text
       xml:space="preserve"
       style="font-size:24px;line-height:1.25;font-family:'Latin Modern Roman';-inkscape-font-specification:'Latin Modern Roman, ';text-align:center;letter-spacing:0px;text-anchor:middle;stroke-width:0.75"
       x="139.4911"
       y="158.25182"
       id="text1108"><tspan
         sodipodi:role="line"
         id="tspan1106"
         x="139.4911"
         y="158.25182"
         style="stroke-width:0.75">Inestable</tspan></text><text
       xml:space="preserve"
       style="font-size:24px;line-height:1.25;font-family:'Latin Modern Roman';-inkscape-font-specification:'Latin Modern Roman, ';text-align:center;letter-spacing:0px;text-anchor:middle;stroke-width:0.75"
       x="17.120632"
       y="189.92433"
       id="text1112"><tspan
         sodipodi:role="line"
         id="tspan1110"
         x="17.120632"
         y="189.92433"
         style="stroke-width:0.75">0</tspan></text><path
       d="m 11.424411,163.35462 c 0,3.211 2.601,5.817 5.816,5.817 3.211,0 5.817,-2.606 5.817,-5.817 0,-3.211 -2.606,-5.816 -5.817,-5.816 -3.215,0 -5.816,2.605 -5.816,5.816"
       style="fill:#808080;fill-opacity:1;fill-rule:nonzero;stroke:#000000;stroke-width:0.977953;stroke-linecap:butt;stroke-linejoin:miter;stroke-miterlimit:4;stroke-dasharray:none;stroke-opacity:1"
       id="path1114" /><path
       d="m 12.655695,163.35473 c 0,2.53127 2.050399,4.58561 4.584822,4.58561 2.531269,0 4.58561,-2.05434 4.58561,-4.58561 0,-2.53127 -2.054341,-4.58483 -4.58561,-4.58483 -2.534423,0 -4.584822,2.05356 -4.584822,4.58483"
       style="fill:#808080;fill-opacity:1;fill-rule:nonzero;stroke:#000000;stroke-width:0.770932;stroke-linecap:butt;stroke-linejoin:miter;stroke-miterlimit:4;stroke-dasharray:none;stroke-opacity:1"
       id="path1116" /><rect
       style="fill:#808080;stroke:#000000;stroke-width:0.717491;stroke-linecap:round;stroke-linejoin:round"
       id="rect1118"
       width="73.19294"
       height="8.586792"
       x="-12.256618"
       y="219.06122" /><rect
       style="fill:#ffffff;stroke:#000000;stroke-width:0.729372;stroke-linecap:round;stroke-linejoin:round"
       id="rect1120"
       width="138.10989"
       height="8.5749102"
       x="63.980137"
       y="219.06715" /><path
       d="M -12.520589,223.35462 H 201.01041"
       style="fill:none;stroke:#000000;stroke-width:0.749999;stroke-linecap:butt;stroke-linejoin:miter;stroke-miterlimit:4;stroke-dasharray:none;stroke-opacity:1"
       id="path1122" /><path
       d="m 193.51041,223.35462 -3,3 10.5,-3 -10.5,-3 z"
       style="fill:#000000;fill-opacity:1;fill-rule:evenodd;stroke:#000000;stroke-width:0.799999;stroke-linecap:butt;stroke-linejoin:miter;stroke-miterlimit:4;stroke-dasharray:none;stroke-opacity:1"
       id="path1124" /><path
       d="m 96.245411,223.35462 h -34.004"
       style="fill:none;stroke:#000000;stroke-width:0.751181;stroke-linecap:butt;stroke-linejoin:miter;stroke-miterlimit:4;stroke-dasharray:none;stroke-opacity:1"
       id="path1126" /><path
       d="m 28.237411,223.35462 h 34.004"
       style="fill:none;stroke:#000000;stroke-width:0.751181;stroke-linecap:butt;stroke-linejoin:miter;stroke-miterlimit:4;stroke-dasharray:none;stroke-opacity:1"
       id="path1128" /><path
       d="m 56.424411,223.35462 c 0,3.211 2.601,5.817 5.816,5.817 3.211,0 5.817,-2.606 5.817,-5.817 0,-3.211 -2.606,-5.816 -5.817,-5.816 -3.215,0 -5.816,2.605 -5.816,5.816"
       style="fill:#ffffff;fill-opacity:1;fill-rule:nonzero;stroke:#000000;stroke-width:0.977953;stroke-linecap:butt;stroke-linejoin:miter;stroke-miterlimit:4;stroke-dasharray:none;stroke-opacity:1"
       id="path1130" /><path
       d="m 181.39341,223.35462 h -34"
       style="fill:none;stroke:#000000;stroke-width:0.751178;stroke-linecap:butt;stroke-linejoin:miter;stroke-miterlimit:4;stroke-dasharray:none;stroke-opacity:1"
       id="path1132" /><text
       xml:space="preserve"
       style="font-style:italic;font-variant:normal;font-weight:normal;font-stretch:normal;font-size:24px;line-height:1.25;font-family:'Latin Modern Roman';-inkscape-font-specification:'Latin Modern Roman, Italic';text-align:center;letter-spacing:0px;text-anchor:middle;stroke-width:0.75"
       x="196.5016"
       y="240.1136"
       id="text1136"><tspan
         sodipodi:role="line"
         id="tspan1134"
         x="196.5016"
         y="240.1136"
         style="font-style:italic;font-variant:normal;font-weight:normal;font-stretch:normal;font-family:'Latin Modern Roman';-inkscape-font-specification:'Latin Modern Roman,  Italic';stroke-width:0.75">r</tspan></text><path
       d="m 56.424411,223.35462 c 0,3.211 2.601,5.817 5.816,5.817 v -11.633 c -3.215,0 -5.816,2.605 -5.816,5.816"
       style="fill:#808080;fill-opacity:1;fill-rule:nonzero;stroke:#000000;stroke-width:0.977953;stroke-linecap:butt;stroke-linejoin:miter;stroke-miterlimit:4;stroke-dasharray:none;stroke-opacity:1"
       id="path1138"
       sodipodi:nodetypes="cccc" /><text
       xml:space="preserve"
       style="font-size:24px;line-height:1.25;font-family:'Latin Modern Roman';-inkscape-font-specification:'Latin Modern Roman, ';text-align:center;letter-spacing:0px;text-anchor:middle;stroke-width:0.75"
       x="62.120632"
       y="249.92433"
       id="text1142"><tspan
         sodipodi:role="line"
         id="tspan1140"
         x="62.120632"
         y="249.92433"
         style="stroke-width:0.75">1</tspan></text><text
       xml:space="preserve"
       style="font-size:24px;line-height:1.25;font-family:'Latin Modern Roman';-inkscape-font-specification:'Latin Modern Roman, ';text-align:center;letter-spacing:0px;text-anchor:middle;stroke-width:0.75"
       x="21.515472"
       y="216.19359"
       id="text1146"><tspan
         sodipodi:role="line"
         id="tspan1144"
         x="21.515472"
         y="216.19359"
         style="stroke-width:0.75">Estable</tspan></text><text
       xml:space="preserve"
       style="font-size:24px;line-height:1.25;font-family:'Latin Modern Roman';-inkscape-font-specification:'Latin Modern Roman, ';text-align:center;letter-spacing:0px;text-anchor:middle;stroke-width:0.75"
       x="139.4911"
       y="218.25182"
       id="text1150"><tspan
         sodipodi:role="line"
         id="tspan1148"
         x="139.4911"
         y="218.25182"
         style="stroke-width:0.75">Inestable</tspan></text><text
       xml:space="preserve"
       style="font-size:24px;line-height:1.25;font-family:'Latin Modern Roman';-inkscape-font-specification:'Latin Modern Roman, ';text-align:center;letter-spacing:0px;text-anchor:middle;stroke-width:0.75"
       x="17.120632"
       y="249.92433"
       id="text1154"><tspan
         sodipodi:role="line"
         id="tspan1152"
         x="17.120632"
         y="249.92433"
         style="stroke-width:0.75">0</tspan></text><path
       d="m 11.424411,223.35462 c 0,3.211 2.601,5.817 5.816,5.817 3.211,0 5.817,-2.606 5.817,-5.817 0,-3.211 -2.606,-5.816 -5.817,-5.816 -3.215,0 -5.816,2.605 -5.816,5.816"
       style="fill:#808080;fill-opacity:1;fill-rule:nonzero;stroke:#000000;stroke-width:0.977953;stroke-linecap:butt;stroke-linejoin:miter;stroke-miterlimit:4;stroke-dasharray:none;stroke-opacity:1"
       id="path1156" /><path
       d="m 12.655695,223.35473 c 0,2.53127 2.050399,4.58561 4.584822,4.58561 2.531269,0 4.58561,-2.05434 4.58561,-4.58561 0,-2.53127 -2.054341,-4.58483 -4.58561,-4.58483 -2.534423,0 -4.584822,2.05356 -4.584822,4.58483"
       style="fill:#808080;fill-opacity:1;fill-rule:nonzero;stroke:#000000;stroke-width:0.770932;stroke-linecap:butt;stroke-linejoin:miter;stroke-miterlimit:4;stroke-dasharray:none;stroke-opacity:1"
       id="path1158" /><text
       xml:space="preserve"
       style="font-size:24px;line-height:1.25;font-family:'Latin Modern Roman';-inkscape-font-specification:'Latin Modern Roman, ';text-align:center;letter-spacing:0px;text-anchor:middle;stroke-width:0.75"
       x="62.120632"
       y="342.32025"
       id="text1170"><tspan
         sodipodi:role="line"
         id="tspan1168"
         x="62.120632"
         y="342.32025"
         style="stroke-width:0.75">1</tspan></text><text
       xml:space="preserve"
       style="font-size:24px;line-height:1.25;font-family:'Latin Modern Roman';-inkscape-font-specification:'Latin Modern Roman, ';text-align:center;letter-spacing:0px;text-anchor:middle;stroke-width:0.75"
       x="17.120632"
       y="342.32025"
       id="text1174"><tspan
         sodipodi:role="line"
         id="tspan1172"
         x="17.120632"
         y="342.32025"
         style="stroke-width:0.75">0</tspan></text><path
       d="m 56.424911,313.35412 c 0,3.211 2.601,5.817 5.816,5.817 3.211,0 5.817,-2.606 5.817,-5.817 0,-3.211 -2.606,-5.816 -5.817,-5.816 -3.215,0 -5.816,2.605 -5.816,5.816"
       style="fill:#ffffff;fill-opacity:1;fill-rule:nonzero;stroke:#000000;stroke-width:0.977953;stroke-linecap:butt;stroke-linejoin:miter;stroke-miterlimit:4;stroke-dasharray:none;stroke-opacity:1"
       id="path1180" /><path
       d="m 56.424911,313.35412 c 0,3.211 2.601,5.817 5.816,5.817 v -11.633 c -3.215,0 -5.816,2.605 -5.816,5.816"
       style="fill:#808080;fill-opacity:1;fill-rule:nonzero;stroke:#000000;stroke-width:0.977953;stroke-linecap:butt;stroke-linejoin:miter;stroke-miterlimit:4;stroke-dasharray:none;stroke-opacity:1"
       id="path1182"
       sodipodi:nodetypes="cccc" /><path
       d="m 56.424911,313.35412 c 0,3.211 2.601,5.817 5.816,5.817 3.211,0 5.817,-2.606 5.817,-5.817 0,-3.211 -2.606,-5.816 -5.817,-5.816 -3.215,0 -5.816,2.605 -5.816,5.816"
       style="fill:#ffffff;fill-opacity:1;fill-rule:nonzero;stroke:#000000;stroke-width:0.977953;stroke-linecap:butt;stroke-linejoin:miter;stroke-miterlimit:4;stroke-dasharray:none;stroke-opacity:1"
       id="path1160" /><path
       d="m 56.424911,313.35412 c 0,3.211 2.601,5.817 5.816,5.817 v -11.633 c -3.215,0 -5.816,2.605 -5.816,5.816"
       style="fill:#000000;fill-opacity:1;fill-rule:nonzero;stroke:#000000;stroke-width:0.977953;stroke-linecap:butt;stroke-linejoin:miter;stroke-miterlimit:4;stroke-dasharray:none;stroke-opacity:1"
       id="path1162"
       sodipodi:nodetypes="cccc" /><path
       d="m 11.554388,313.35414 c 0,3.13952 2.543101,5.6875 5.686537,5.6875 3.139521,0 5.687505,-2.54798 5.687505,-5.6875 0,-3.13953 -2.547984,-5.68654 -5.687505,-5.68654 -3.143436,0 -5.686537,2.54701 -5.686537,5.68654"
       style="fill:#ffffff;fill-opacity:1;fill-rule:nonzero;stroke:#000000;stroke-width:0.95618;stroke-linecap:butt;stroke-linejoin:miter;stroke-miterlimit:4;stroke-dasharray:none;stroke-opacity:1"
       id="path1192" /><path
       d="m 14.803768,313.35441 c 0,1.3457 1.090055,2.43786 2.437432,2.43786 1.345701,0 2.437851,-1.09216 2.437851,-2.43786 0,-1.3457 -1.09215,-2.43743 -2.437851,-2.43743 -1.347377,0 -2.437432,1.09173 -2.437432,2.43743"
       style="fill:#000000;fill-opacity:1;fill-rule:nonzero;stroke:#000000;stroke-width:0.409851;stroke-linecap:butt;stroke-linejoin:miter;stroke-miterlimit:4;stroke-dasharray:none;stroke-opacity:1"
       id="path1190" /><text
       xml:space="preserve"
       style="font-size:24px;line-height:1.25;font-family:'Latin Modern Roman';-inkscape-font-specification:'Latin Modern Roman, ';text-align:center;letter-spacing:0px;text-anchor:middle;stroke-width:0.75"
       x="15.101228"
       y="133.43141"
       id="text1198"><tspan
         sodipodi:role="line"
         id="tspan1196"
         x="15.101228"
         y="133.43141"
         style="font-style:italic;font-variant:normal;font-weight:normal;font-stretch:normal;font-family:'Latin Modern Roman';-inkscape-font-specification:'Latin Modern Roman,  Italic';stroke-width:0.75">n*=0</tspan></text></g></svg>
