<?xml version="1.0" encoding="UTF-8" standalone="no"?>
<!-- Created with Inkscape (http://www.inkscape.org/) -->

<svg
   sodipodi:docname="cosa2.svg"
   inkscape:version="1.1 (c4e8f9ed74, 2021-05-24)"
   id="svg5"
   version="1.1"
   viewBox="0 0 292.75394 107.28608"
   height="107.28606mm"
   width="292.75394mm"
   xmlns:inkscape="http://www.inkscape.org/namespaces/inkscape"
   xmlns:sodipodi="http://sodipodi.sourceforge.net/DTD/sodipodi-0.dtd"
   xmlns:xlink="http://www.w3.org/1999/xlink"
   xmlns="http://www.w3.org/2000/svg"
   xmlns:svg="http://www.w3.org/2000/svg">
  <sodipodi:namedview
     id="namedview7"
     pagecolor="#ffffff"
     bordercolor="#666666"
     borderopacity="1.0"
     inkscape:pageshadow="2"
     inkscape:pageopacity="0.0"
     inkscape:pagecheckerboard="0"
     inkscape:document-units="mm"
     showgrid="false"
     inkscape:object-paths="true"
     inkscape:zoom="0.71665813"
     inkscape:cx="572.79752"
     inkscape:cy="261.63102"
     inkscape:window-width="1333"
     inkscape:window-height="768"
     inkscape:window-x="33"
     inkscape:window-y="0"
     inkscape:window-maximized="1"
     inkscape:current-layer="layer1"
     inkscape:snap-intersection-paths="true"
     showguides="false"
     inkscape:guide-bbox="true">
    <sodipodi:guide
       position="207.44841,102.10897"
       orientation="0,-1"
       id="guide20686" />
    <sodipodi:guide
       position="176.66257,13.108859"
       orientation="0,-1"
       id="guide20688" />
    <sodipodi:guide
       position="138.31031,79.265873"
       orientation="0,-1"
       id="guide22705" />
  </sodipodi:namedview>
  <defs
     id="defs2">
    <inkscape:path-effect
       effect="bspline"
       id="path-effect23588"
       is_visible="true"
       lpeversion="1"
       weight="33.333333"
       steps="2"
       helper_size="0"
       apply_no_weight="true"
       apply_with_weight="true"
       only_selected="false" />
    <inkscape:path-effect
       effect="bspline"
       id="path-effect23263"
       is_visible="true"
       lpeversion="1"
       weight="33.333333"
       steps="2"
       helper_size="0"
       apply_no_weight="true"
       apply_with_weight="true"
       only_selected="false" />
    <inkscape:path-effect
       effect="bspline"
       id="path-effect16618"
       is_visible="true"
       lpeversion="1"
       weight="33.333333"
       steps="2"
       helper_size="0"
       apply_no_weight="true"
       apply_with_weight="true"
       only_selected="false" />
    <inkscape:path-effect
       effect="bspline"
       id="path-effect15170"
       is_visible="true"
       lpeversion="1"
       weight="33.333333"
       steps="2"
       helper_size="0"
       apply_no_weight="true"
       apply_with_weight="true"
       only_selected="false" />
    <inkscape:path-effect
       effect="bspline"
       id="path-effect293"
       is_visible="true"
       lpeversion="1"
       weight="33.333333"
       steps="2"
       helper_size="0"
       apply_no_weight="true"
       apply_with_weight="true"
       only_selected="false" />
    <inkscape:path-effect
       effect="bspline"
       id="path-effect176"
       is_visible="true"
       lpeversion="1"
       weight="33.333333"
       steps="2"
       helper_size="0"
       apply_no_weight="true"
       apply_with_weight="true"
       only_selected="false" />
    <inkscape:path-effect
       effect="bspline"
       id="path-effect168"
       is_visible="true"
       lpeversion="1"
       weight="33.333333"
       steps="2"
       helper_size="0"
       apply_no_weight="true"
       apply_with_weight="true"
       only_selected="false" />
    <inkscape:path-effect
       effect="bspline"
       id="path-effect160"
       is_visible="true"
       lpeversion="1"
       weight="33.333333"
       steps="2"
       helper_size="0"
       apply_no_weight="true"
       apply_with_weight="true"
       only_selected="false" />
    <inkscape:path-effect
       effect="bspline"
       id="path-effect72"
       is_visible="true"
       lpeversion="1"
       weight="33.333333"
       steps="2"
       helper_size="0"
       apply_no_weight="true"
       apply_with_weight="true"
       only_selected="false" />
    <g
       id="g6049">
      <symbol
         overflow="visible"
         id="symbol1797">
        <path
           style="stroke:none"
           d=""
           id="path5367" />
      </symbol>
      <symbol
         overflow="visible"
         id="symbol5984">
        <path
           style="stroke:none"
           d="M 3.328125,-3.015625 C 3.390625,-3.265625 3.625,-4.1875 4.3125,-4.1875 c 0.046875,0 0.296875,0 0.5,0.125 C 4.53125,-4 4.34375,-3.765625 4.34375,-3.515625 c 0,0.15625 0.109375,0.34375 0.375,0.34375 0.21875,0 0.53125,-0.171875 0.53125,-0.578125 0,-0.515625 -0.578125,-0.65625 -0.921875,-0.65625 -0.578125,0 -0.921875,0.53125 -1.046875,0.75 -0.25,-0.65625 -0.78125,-0.75 -1.078125,-0.75 -1.03125,0 -1.609375,1.28125 -1.609375,1.53125 0,0.109375 0.109375,0.109375 0.125,0.109375 0.078125,0 0.109375,-0.03125 0.125,-0.109375 0.34375,-1.0625 1,-1.3125 1.34375,-1.3125 0.1875,0 0.53125,0.09375 0.53125,0.671875 0,0.3125 -0.171875,0.96875 -0.53125,2.375 -0.15625,0.609375 -0.515625,1.03125 -0.953125,1.03125 -0.0625,0 -0.28125,0 -0.5,-0.125 0.25,-0.0625 0.46875,-0.265625 0.46875,-0.546875 0,-0.265625 -0.21875,-0.34375 -0.359375,-0.34375 -0.3125,0 -0.546875,0.25 -0.546875,0.578125 0,0.453125 0.484375,0.65625 0.921875,0.65625 0.671875,0 1.03125,-0.703125 1.046875,-0.75 0.125,0.359375 0.484375,0.75 1.078125,0.75 1.03125,0 1.59375,-1.28125 1.59375,-1.53125 0,-0.109375 -0.078125,-0.109375 -0.109375,-0.109375 -0.09375,0 -0.109375,0.046875 -0.140625,0.109375 -0.328125,1.078125 -1,1.3125 -1.3125,1.3125 -0.390625,0 -0.546875,-0.3125 -0.546875,-0.65625 0,-0.21875 0.046875,-0.4375 0.15625,-0.875 z m 0,0"
           id="path2733" />
      </symbol>
      <symbol
         overflow="visible"
         id="symbol4318">
        <path
           style="stroke:none"
           d=""
           id="path1630" />
      </symbol>
      <symbol
         overflow="visible"
         id="symbol5168">
        <path
           style="stroke:none"
           d="m 6.84375,-3.265625 c 0.15625,0 0.34375,0 0.34375,-0.1875 C 7.1875,-3.65625 7,-3.65625 6.859375,-3.65625 h -5.96875 c -0.140625,0 -0.328125,0 -0.328125,0.203125 0,0.1875 0.1875,0.1875 0.328125,0.1875 z m 0.015625,1.9375 c 0.140625,0 0.328125,0 0.328125,-0.203125 0,-0.1875 -0.1875,-0.1875 -0.34375,-0.1875 H 0.890625 c -0.140625,0 -0.328125,0 -0.328125,0.1875 0,0.203125 0.1875,0.203125 0.328125,0.203125 z m 0,0"
           id="path8520" />
      </symbol>
      <symbol
         overflow="visible"
         id="symbol4008">
        <path
           style="stroke:none"
           d=""
           id="path375" />
      </symbol>
      <symbol
         overflow="visible"
         id="symbol3592">
        <path
           style="stroke:none"
           d="m 6.5625,-2.296875 c 0.171875,0 0.359375,0 0.359375,-0.203125 0,-0.1875 -0.1875,-0.1875 -0.359375,-0.1875 H 1.171875 c -0.171875,0 -0.34375,0 -0.34375,0.1875 0,0.203125 0.171875,0.203125 0.34375,0.203125 z m 0,0"
           id="path1434" />
      </symbol>
      <symbol
         overflow="visible"
         id="symbol7241">
        <path
           style="stroke:none"
           d=""
           id="path6981" />
      </symbol>
      <symbol
         overflow="visible"
         id="symbol5663">
        <path
           style="stroke:none"
           d="M 3.875,-2.625 C 3.90625,-2.71875 3.90625,-2.734375 3.90625,-2.78125 3.90625,-2.921875 3.796875,-3 3.671875,-3 3.59375,-3 3.46875,-2.96875 3.390625,-2.84375 3.359375,-2.796875 3.3125,-2.578125 3.28125,-2.4375 L 3.125,-1.859375 c -0.03125,0.171875 -0.25,1.046875 -0.28125,1.125 0,0 -0.3125,0.609375 -0.84375,0.609375 -0.484375,0 -0.484375,-0.453125 -0.484375,-0.578125 0,-0.375 0.15625,-0.8125 0.375,-1.359375 C 1.96875,-2.28125 2,-2.359375 2,-2.484375 2,-2.8125 1.71875,-3.078125 1.34375,-3.078125 0.640625,-3.078125 0.328125,-2.125 0.328125,-2 c 0,0.078125 0.09375,0.078125 0.125,0.078125 0.09375,0 0.09375,-0.03125 0.125,-0.109375 C 0.75,-2.609375 1.046875,-2.875 1.328125,-2.875 1.4375,-2.875 1.5,-2.796875 1.5,-2.640625 c 0,0.171875 -0.0625,0.3125 -0.09375,0.40625 C 1.0625,-1.375 1,-1.125 1,-0.8125 1,-0.703125 1,-0.375 1.265625,-0.140625 1.484375,0.03125 1.78125,0.0625 1.96875,0.0625 2.25,0.0625 2.5,-0.03125 2.71875,-0.25 2.640625,0.140625 2.5625,0.4375 2.265625,0.78125 2.078125,1 1.796875,1.21875 1.421875,1.21875 c -0.046875,0 -0.375,0 -0.515625,-0.21875 0.375,-0.046875 0.375,-0.375 0.375,-0.390625 0,-0.21875 -0.203125,-0.265625 -0.265625,-0.265625 -0.171875,0 -0.40625,0.140625 -0.40625,0.46875 0,0.34375 0.328125,0.609375 0.828125,0.609375 C 2.140625,1.421875 3,0.875 3.21875,0 Z m 0,0"
           id="path1732" />
      </symbol>
      <symbol
         overflow="visible"
         id="symbol5278">
        <path
           style="stroke:none"
           d="m 3.046875,-2.671875 c -0.25,0.046875 -0.34375,0.234375 -0.34375,0.390625 0,0.1875 0.140625,0.265625 0.265625,0.265625 0.15625,0 0.390625,-0.109375 0.390625,-0.453125 0,-0.46875 -0.53125,-0.609375 -0.90625,-0.609375 -1.046875,0 -2.015625,0.96875 -2.015625,1.9375 0,0.59375 0.40625,1.203125 1.28125,1.203125 1.1875,0 1.734375,-0.6875 1.734375,-0.78125 0,-0.046875 -0.0625,-0.125 -0.125,-0.125 -0.03125,0 -0.046875,0.015625 -0.109375,0.078125 C 2.671875,-0.125 1.859375,-0.125 1.734375,-0.125 c -0.5,0 -0.71875,-0.34375 -0.71875,-0.78125 0,-0.1875 0.09375,-0.953125 0.453125,-1.4375 0.265625,-0.34375 0.625,-0.53125 0.984375,-0.53125 0.09375,0 0.421875,0.015625 0.59375,0.203125 z m 0,0"
           id="path4043" />
      </symbol>
      <symbol
         overflow="visible"
         id="symbol5153">
        <path
           style="stroke:none"
           d="m 1.5625,-1.59375 c 0.1875,0 0.75,-0.015625 1.125,-0.140625 0.515625,-0.1875 0.609375,-0.515625 0.609375,-0.71875 0,-0.390625 -0.390625,-0.625 -0.859375,-0.625 -0.84375,0 -1.96875,0.640625 -1.96875,1.84375 0,0.703125 0.4375,1.296875 1.25,1.296875 1.1875,0 1.734375,-0.6875 1.734375,-0.78125 0,-0.046875 -0.0625,-0.125 -0.125,-0.125 -0.03125,0 -0.046875,0.015625 -0.109375,0.078125 C 2.671875,-0.125 1.859375,-0.125 1.734375,-0.125 1.3125,-0.125 1.03125,-0.40625 1.03125,-0.96875 c 0,-0.09375 0,-0.234375 0.09375,-0.625 z M 1.171875,-1.78125 C 1.46875,-2.796875 2.234375,-2.875 2.4375,-2.875 2.734375,-2.875 3,-2.71875 3,-2.453125 3,-1.78125 1.8125,-1.78125 1.515625,-1.78125 Z m 0,0"
           id="path4521" />
      </symbol>
      <symbol
         overflow="visible"
         id="symbol6408">
        <path
           style="stroke:none"
           d=""
           id="path8660" />
      </symbol>
      <symbol
         overflow="visible"
         id="symbol7587">
        <path
           style="stroke:none"
           d="M 1.5625,-3.265625 C 1.59375,-3.34375 1.59375,-3.34375 1.59375,-3.375 c 0,-0.078125 -0.078125,-0.078125 -0.15625,-0.078125 L 0.828125,-3.40625 c -0.09375,0 -0.09375,0 -0.125,0.03125 -0.015625,0.015625 -0.03125,0.078125 -0.03125,0.109375 0,0.078125 0.078125,0.078125 0.140625,0.078125 0.015625,0 0.09375,0 0.171875,0.015625 0.09375,0.015625 0.109375,0.03125 0.109375,0.0625 0,0.03125 -0.0625,0.234375 -0.09375,0.34375 L 0.59375,-1.09375 C 0.5625,-1 0.546875,-0.921875 0.546875,-0.8125 c 0,0.515625 0.375,0.875 0.859375,0.875 0.71875,0 1.40625,-0.703125 1.40625,-1.390625 0,-0.5 -0.359375,-0.875 -0.875,-0.875 -0.21875,0 -0.453125,0.078125 -0.703125,0.265625 z m -0.15625,3.15625 c -0.203125,0 -0.453125,-0.140625 -0.453125,-0.53125 0,-0.171875 0.03125,-0.328125 0.078125,-0.5 0.015625,-0.0625 0.09375,-0.375 0.109375,-0.40625 C 1.15625,-1.59375 1.5,-2.03125 1.921875,-2.03125 c 0.21875,0 0.4375,0.125 0.4375,0.5 0,0.1875 -0.09375,0.65625 -0.25,0.953125 -0.171875,0.28125 -0.453125,0.46875 -0.703125,0.46875 z m 0,0"
           id="path7330" />
      </symbol>
      <symbol
         overflow="visible"
         id="symbol7158">
        <path
           style="stroke:none"
           d="m 2.875,-1.609375 c 0.03125,-0.109375 0.078125,-0.296875 0.078125,-0.3125 0,-0.09375 -0.0625,-0.1875 -0.1875,-0.1875 -0.078125,0 -0.203125,0.0625 -0.25,0.203125 -0.09375,-0.125 -0.28125,-0.296875 -0.59375,-0.296875 -0.703125,0 -1.40625,0.6875 -1.40625,1.390625 0,0.515625 0.375,0.875 0.875,0.875 0.40625,0 0.734375,-0.296875 0.796875,-0.359375 0.078125,0.25 0.359375,0.359375 0.578125,0.359375 0.203125,0 0.34375,-0.125 0.4375,-0.28125 0.140625,-0.203125 0.203125,-0.46875 0.203125,-0.5 0,-0.0625 -0.078125,-0.0625 -0.109375,-0.0625 -0.078125,0 -0.09375,0.03125 -0.109375,0.109375 -0.09375,0.359375 -0.21875,0.5625 -0.390625,0.5625 -0.140625,0 -0.203125,-0.109375 -0.203125,-0.265625 0,-0.078125 0.046875,-0.265625 0.078125,-0.40625 z M 2.21875,-0.65625 c -0.03125,0.0625 -0.03125,0.078125 -0.109375,0.171875 -0.1875,0.21875 -0.453125,0.375 -0.703125,0.375 -0.171875,0 -0.4375,-0.09375 -0.4375,-0.515625 0,-0.234375 0.125,-0.75 0.296875,-1.015625 0.1875,-0.265625 0.453125,-0.390625 0.65625,-0.390625 0.21875,0 0.4375,0.125 0.515625,0.4375 z m 0,0"
           id="path3709" />
      </symbol>
      <symbol
         overflow="visible"
         id="symbol2568">
        <path
           style="stroke:none"
           d=""
           id="path3547" />
      </symbol>
      <symbol
         overflow="visible"
         id="symbol4">
        <path
           style="stroke:none"
           d="m 5.1875,-1.578125 c 0.109375,0 0.28125,0 0.28125,-0.15625 0,-0.1875 -0.171875,-0.1875 -0.28125,-0.1875 H 1.03125 c -0.109375,0 -0.28125,0 -0.28125,0.171875 0,0.171875 0.15625,0.171875 0.28125,0.171875 z m 0,0"
           id="path2582" />
      </symbol>
      <symbol
         overflow="visible"
         id="symbol1695">
        <path
           style="stroke:none"
           d=""
           id="path6675" />
      </symbol>
      <symbol
         overflow="visible"
         id="symbol8263">
        <path
           style="stroke:none"
           d="M 2.46875,-5.21875 C 1.15625,-4.296875 0.796875,-2.8125 0.796875,-1.75 c 0,0.984375 0.296875,2.515625 1.671875,3.484375 0.0625,0 0.140625,0 0.140625,-0.078125 0,-0.046875 -0.015625,-0.0625 -0.0625,-0.109375 C 1.609375,0.703125 1.28125,-0.46875 1.28125,-1.734375 1.28125,-3.625 2,-4.546875 2.5625,-5.0625 2.59375,-5.09375 2.609375,-5.109375 2.609375,-5.140625 2.609375,-5.21875 2.53125,-5.21875 2.46875,-5.21875 Z m 0,0"
           id="path4281" />
      </symbol>
      <symbol
         overflow="visible"
         id="symbol3205">
        <path
           style="stroke:none"
           d="m 3.21875,-1.578125 h 2.140625 c 0.09375,0 0.25,0 0.25,-0.15625 0,-0.1875 -0.15625,-0.1875 -0.25,-0.1875 H 3.21875 V -4.0625 c 0,-0.078125 0,-0.25 -0.15625,-0.25 -0.171875,0 -0.171875,0.15625 -0.171875,0.25 v 2.140625 H 0.75 c -0.09375,0 -0.265625,0 -0.265625,0.171875 0,0.171875 0.15625,0.171875 0.265625,0.171875 H 2.890625 V 0.5625 c 0,0.09375 0,0.265625 0.15625,0.265625 0.171875,0 0.171875,-0.171875 0.171875,-0.265625 z m 0,0"
           id="path7951" />
      </symbol>
      <symbol
         overflow="visible"
         id="symbol1970">
        <path
           style="stroke:none"
           d="m 0.625,-5.21875 c -0.046875,0 -0.125,0 -0.125,0.078125 0,0.03125 0.015625,0.046875 0.0625,0.109375 0.59375,0.546875 1.265625,1.484375 1.265625,3.28125 0,1.453125 -0.453125,2.5625 -1.203125,3.234375 -0.125,0.125 -0.125,0.125 -0.125,0.171875 0,0.03125 0.015625,0.078125 0.078125,0.078125 0.09375,0 0.75,-0.453125 1.21875,-1.328125 0.296875,-0.578125 0.5,-1.328125 0.5,-2.140625 C 2.296875,-2.71875 2,-4.25 0.625,-5.21875 Z m 0,0"
           id="path3628" />
      </symbol>
      <symbol
         overflow="visible"
         id="symbol1780">
        <path
           style="stroke:none"
           d=""
           id="path4785" />
      </symbol>
      <symbol
         overflow="visible"
         id="symbol1544">
        <path
           style="stroke:none"
           d="M 2.9375,-0.96875 H 2.71875 c 0,0.09375 -0.0625,0.40625 -0.140625,0.453125 -0.03125,0.03125 -0.453125,0.03125 -0.53125,0.03125 H 1.078125 C 1.40625,-0.71875 1.765625,-1 2.0625,-1.203125 c 0.453125,-0.3125 0.875,-0.59375 0.875,-1.125 0,-0.640625 -0.609375,-0.984375 -1.3125,-0.984375 -0.671875,0 -1.171875,0.375 -1.171875,0.875 0,0.25 0.21875,0.296875 0.296875,0.296875 0.125,0 0.28125,-0.09375 0.28125,-0.296875 0,-0.171875 -0.125,-0.28125 -0.28125,-0.28125 0.140625,-0.234375 0.4375,-0.375 0.765625,-0.375 0.484375,0 0.890625,0.28125 0.890625,0.765625 0,0.421875 -0.296875,0.75 -0.671875,1.0625 l -1.21875,1.03125 C 0.46875,-0.1875 0.453125,-0.1875 0.453125,-0.15625 V 0 h 2.3125 z m 0,0"
           id="path3232" />
      </symbol>
    </g>
    <g
       id="g350">
      <symbol
         overflow="visible"
         id="symbol3354">
        <path
           style="stroke:none"
           d=""
           id="path7650" />
      </symbol>
      <symbol
         overflow="visible"
         id="symbol2907">
        <path
           style="stroke:none"
           d="m 4.84375,-3.796875 c 0.046875,-0.140625 0.046875,-0.15625 0.046875,-0.234375 0,-0.171875 -0.140625,-0.265625 -0.296875,-0.265625 -0.09375,0 -0.25,0.0625 -0.34375,0.203125 -0.015625,0.0625 -0.109375,0.359375 -0.140625,0.546875 -0.078125,0.25 -0.140625,0.53125 -0.203125,0.796875 l -0.453125,1.796875 c -0.03125,0.140625 -0.46875,0.84375 -1.125,0.84375 -0.5,0 -0.609375,-0.4375 -0.609375,-0.8125 C 1.71875,-1.375 1.890625,-2 2.21875,-2.875 2.375,-3.28125 2.421875,-3.390625 2.421875,-3.59375 c 0,-0.4375 -0.3125,-0.8125 -0.8125,-0.8125 -0.953125,0 -1.3125,1.453125 -1.3125,1.53125 0,0.109375 0.09375,0.109375 0.109375,0.109375 0.109375,0 0.109375,-0.03125 0.15625,-0.1875 0.28125,-0.9375 0.671875,-1.234375 1.015625,-1.234375 0.078125,0 0.25,0 0.25,0.3125 0,0.25 -0.109375,0.515625 -0.171875,0.703125 -0.40625,1.0625 -0.578125,1.625 -0.578125,2.09375 0,0.890625 0.625,1.1875 1.21875,1.1875 0.390625,0 0.71875,-0.171875 1,-0.453125 -0.125,0.515625 -0.25,1.015625 -0.640625,1.546875 -0.265625,0.328125 -0.640625,0.625 -1.09375,0.625 -0.140625,0 -0.59375,-0.03125 -0.765625,-0.421875 0.15625,0 0.296875,0 0.421875,-0.125 C 1.328125,1.203125 1.421875,1.0625 1.421875,0.875 1.421875,0.5625 1.15625,0.53125 1.0625,0.53125 0.828125,0.53125 0.5,0.6875 0.5,1.171875 c 0,0.5 0.4375,0.875 1.0625,0.875 1.015625,0 2.046875,-0.90625 2.328125,-2.03125 z m 0,0"
           id="path5338" />
      </symbol>
      <symbol
         overflow="visible"
         id="symbol7900">
        <path
           style="stroke:none"
           d=""
           id="path7065" />
      </symbol>
      <symbol
         overflow="visible"
         id="symbol2211">
        <path
           style="stroke:none"
           d="m 6.84375,-3.265625 c 0.15625,0 0.34375,0 0.34375,-0.1875 C 7.1875,-3.65625 7,-3.65625 6.859375,-3.65625 h -5.96875 c -0.140625,0 -0.328125,0 -0.328125,0.203125 0,0.1875 0.1875,0.1875 0.328125,0.1875 z m 0.015625,1.9375 c 0.140625,0 0.328125,0 0.328125,-0.203125 0,-0.1875 -0.1875,-0.1875 -0.34375,-0.1875 H 0.890625 c -0.140625,0 -0.328125,0 -0.328125,0.1875 0,0.203125 0.1875,0.203125 0.328125,0.203125 z m 0,0"
           id="path4944" />
      </symbol>
      <symbol
         overflow="visible"
         id="symbol4552">
        <path
           style="stroke:none"
           d=""
           id="path6706" />
      </symbol>
      <symbol
         overflow="visible"
         id="symbol6095">
        <path
           style="stroke:none"
           d="m 1.5625,-1.59375 c 0.1875,0 0.75,-0.015625 1.125,-0.140625 0.515625,-0.1875 0.609375,-0.515625 0.609375,-0.71875 0,-0.390625 -0.390625,-0.625 -0.859375,-0.625 -0.84375,0 -1.96875,0.640625 -1.96875,1.84375 0,0.703125 0.4375,1.296875 1.25,1.296875 1.1875,0 1.734375,-0.6875 1.734375,-0.78125 0,-0.046875 -0.0625,-0.125 -0.125,-0.125 -0.03125,0 -0.046875,0.015625 -0.109375,0.078125 C 2.671875,-0.125 1.859375,-0.125 1.734375,-0.125 1.3125,-0.125 1.03125,-0.40625 1.03125,-0.96875 c 0,-0.09375 0,-0.234375 0.09375,-0.625 z M 1.171875,-1.78125 C 1.46875,-2.796875 2.234375,-2.875 2.4375,-2.875 2.734375,-2.875 3,-2.71875 3,-2.453125 3,-1.78125 1.8125,-1.78125 1.515625,-1.78125 Z m 0,0"
           id="path1791" />
      </symbol>
      <symbol
         overflow="visible"
         id="symbol3428">
        <path
           style="stroke:none"
           d="m 3.046875,-2.671875 c -0.25,0.046875 -0.34375,0.234375 -0.34375,0.390625 0,0.1875 0.140625,0.265625 0.265625,0.265625 0.15625,0 0.390625,-0.109375 0.390625,-0.453125 0,-0.46875 -0.53125,-0.609375 -0.90625,-0.609375 -1.046875,0 -2.015625,0.96875 -2.015625,1.9375 0,0.59375 0.40625,1.203125 1.28125,1.203125 1.1875,0 1.734375,-0.6875 1.734375,-0.78125 0,-0.046875 -0.0625,-0.125 -0.125,-0.125 -0.03125,0 -0.046875,0.015625 -0.109375,0.078125 C 2.671875,-0.125 1.859375,-0.125 1.734375,-0.125 c -0.5,0 -0.71875,-0.34375 -0.71875,-0.78125 0,-0.1875 0.09375,-0.953125 0.453125,-1.4375 0.265625,-0.34375 0.625,-0.53125 0.984375,-0.53125 0.09375,0 0.421875,0.015625 0.59375,0.203125 z m 0,0"
           id="path5635" />
      </symbol>
      <symbol
         overflow="visible"
         id="symbol8846">
        <path
           style="stroke:none"
           d="M 1.734375,-0.734375 C 1.671875,-0.5 1.4375,-0.125 1.078125,-0.125 c -0.015625,0 -0.234375,0 -0.375,-0.09375 0.28125,-0.09375 0.3125,-0.34375 0.3125,-0.390625 0,-0.15625 -0.125,-0.25 -0.28125,-0.25 -0.203125,0 -0.40625,0.15625 -0.40625,0.421875 0,0.34375 0.390625,0.5 0.734375,0.5 0.328125,0 0.609375,-0.1875 0.78125,-0.484375 C 2.015625,-0.0625 2.390625,0.0625 2.671875,0.0625 c 0.8125,0 1.234375,-0.859375 1.234375,-1.0625 0,-0.09375 -0.09375,-0.09375 -0.109375,-0.09375 -0.109375,0 -0.109375,0.046875 -0.140625,0.125 -0.140625,0.484375 -0.5625,0.84375 -0.953125,0.84375 -0.28125,0 -0.421875,-0.1875 -0.421875,-0.453125 0,-0.1875 0.171875,-0.8125 0.359375,-1.59375 C 2.78125,-2.703125 3.09375,-2.875 3.328125,-2.875 c 0.015625,0 0.21875,0 0.375,0.09375 -0.21875,0.0625 -0.3125,0.265625 -0.3125,0.390625 0,0.140625 0.125,0.25 0.28125,0.25 0.15625,0 0.390625,-0.125 0.390625,-0.421875 0,-0.390625 -0.453125,-0.515625 -0.71875,-0.515625 -0.359375,0 -0.640625,0.234375 -0.78125,0.5 -0.125,-0.28125 -0.453125,-0.5 -0.84375,-0.5 C 0.9375,-3.078125 0.5,-2.21875 0.5,-2 c 0,0.078125 0.09375,0.078125 0.109375,0.078125 0.09375,0 0.09375,-0.015625 0.140625,-0.109375 C 0.921875,-2.578125 1.359375,-2.875 1.703125,-2.875 1.9375,-2.875 2.125,-2.75 2.125,-2.421875 2.125,-2.28125 2.03125,-1.9375 1.96875,-1.6875 Z m 0,0"
           id="path5254" />
      </symbol>
      <symbol
         overflow="visible"
         id="symbol5926">
        <path
           style="stroke:none"
           d=""
           id="path4624" />
      </symbol>
      <symbol
         overflow="visible"
         id="symbol8639">
        <path
           style="stroke:none"
           d="m 2.875,-1.609375 c 0.03125,-0.109375 0.078125,-0.296875 0.078125,-0.3125 0,-0.09375 -0.0625,-0.1875 -0.1875,-0.1875 -0.078125,0 -0.203125,0.0625 -0.25,0.203125 -0.09375,-0.125 -0.28125,-0.296875 -0.59375,-0.296875 -0.703125,0 -1.40625,0.6875 -1.40625,1.390625 0,0.515625 0.375,0.875 0.875,0.875 0.40625,0 0.734375,-0.296875 0.796875,-0.359375 0.078125,0.25 0.359375,0.359375 0.578125,0.359375 0.203125,0 0.34375,-0.125 0.4375,-0.28125 0.140625,-0.203125 0.203125,-0.46875 0.203125,-0.5 0,-0.0625 -0.078125,-0.0625 -0.109375,-0.0625 -0.078125,0 -0.09375,0.03125 -0.109375,0.109375 -0.09375,0.359375 -0.21875,0.5625 -0.390625,0.5625 -0.140625,0 -0.203125,-0.109375 -0.203125,-0.265625 0,-0.078125 0.046875,-0.265625 0.078125,-0.40625 z M 2.21875,-0.65625 c -0.03125,0.0625 -0.03125,0.078125 -0.109375,0.171875 -0.1875,0.21875 -0.453125,0.375 -0.703125,0.375 -0.171875,0 -0.4375,-0.09375 -0.4375,-0.515625 0,-0.234375 0.125,-0.75 0.296875,-1.015625 0.1875,-0.265625 0.453125,-0.390625 0.65625,-0.390625 0.21875,0 0.4375,0.125 0.515625,0.4375 z m 0,0"
           id="path976" />
      </symbol>
      <symbol
         overflow="visible"
         id="symbol2030">
        <path
           style="stroke:none"
           d="M 1.5625,-3.265625 C 1.59375,-3.34375 1.59375,-3.34375 1.59375,-3.375 c 0,-0.078125 -0.078125,-0.078125 -0.15625,-0.078125 L 0.828125,-3.40625 c -0.09375,0 -0.09375,0 -0.125,0.03125 -0.015625,0.015625 -0.03125,0.078125 -0.03125,0.109375 0,0.078125 0.078125,0.078125 0.140625,0.078125 0.015625,0 0.09375,0 0.171875,0.015625 0.09375,0.015625 0.109375,0.03125 0.109375,0.0625 0,0.03125 -0.0625,0.234375 -0.09375,0.34375 L 0.59375,-1.09375 C 0.5625,-1 0.546875,-0.921875 0.546875,-0.8125 c 0,0.515625 0.375,0.875 0.859375,0.875 0.71875,0 1.40625,-0.703125 1.40625,-1.390625 0,-0.5 -0.359375,-0.875 -0.875,-0.875 -0.21875,0 -0.453125,0.078125 -0.703125,0.265625 z m -0.15625,3.15625 c -0.203125,0 -0.453125,-0.140625 -0.453125,-0.53125 0,-0.171875 0.03125,-0.328125 0.078125,-0.5 0.015625,-0.0625 0.09375,-0.375 0.109375,-0.40625 C 1.15625,-1.59375 1.5,-2.03125 1.921875,-2.03125 c 0.21875,0 0.4375,0.125 0.4375,0.5 0,0.1875 -0.09375,0.65625 -0.25,0.953125 -0.171875,0.28125 -0.453125,0.46875 -0.703125,0.46875 z m 0,0"
           id="path5344" />
      </symbol>
      <symbol
         overflow="visible"
         id="symbol2444">
        <path
           style="stroke:none"
           d=""
           id="path6913" />
      </symbol>
      <symbol
         overflow="visible"
         id="symbol7436">
        <path
           style="stroke:none"
           d="M 2.46875,-5.21875 C 1.15625,-4.296875 0.796875,-2.8125 0.796875,-1.75 c 0,0.984375 0.296875,2.515625 1.671875,3.484375 0.0625,0 0.140625,0 0.140625,-0.078125 0,-0.046875 -0.015625,-0.0625 -0.0625,-0.109375 C 1.609375,0.703125 1.28125,-0.46875 1.28125,-1.734375 1.28125,-3.625 2,-4.546875 2.5625,-5.0625 2.59375,-5.09375 2.609375,-5.109375 2.609375,-5.140625 2.609375,-5.21875 2.53125,-5.21875 2.46875,-5.21875 Z m 0,0"
           id="path2013" />
      </symbol>
      <symbol
         overflow="visible"
         id="symbol9838">
        <path
           style="stroke:none"
           d="m 3.21875,-1.578125 h 2.140625 c 0.09375,0 0.25,0 0.25,-0.15625 0,-0.1875 -0.15625,-0.1875 -0.25,-0.1875 H 3.21875 V -4.0625 c 0,-0.078125 0,-0.25 -0.15625,-0.25 -0.171875,0 -0.171875,0.15625 -0.171875,0.25 v 2.140625 H 0.75 c -0.09375,0 -0.265625,0 -0.265625,0.171875 0,0.171875 0.15625,0.171875 0.265625,0.171875 H 2.890625 V 0.5625 c 0,0.09375 0,0.265625 0.15625,0.265625 0.171875,0 0.171875,-0.171875 0.171875,-0.265625 z m 0,0"
           id="path9948" />
      </symbol>
      <symbol
         overflow="visible"
         id="symbol2067">
        <path
           style="stroke:none"
           d="m 0.625,-5.21875 c -0.046875,0 -0.125,0 -0.125,0.078125 0,0.03125 0.015625,0.046875 0.0625,0.109375 0.59375,0.546875 1.265625,1.484375 1.265625,3.28125 0,1.453125 -0.453125,2.5625 -1.203125,3.234375 -0.125,0.125 -0.125,0.125 -0.125,0.171875 0,0.03125 0.015625,0.078125 0.078125,0.078125 0.09375,0 0.75,-0.453125 1.21875,-1.328125 0.296875,-0.578125 0.5,-1.328125 0.5,-2.140625 C 2.296875,-2.71875 2,-4.25 0.625,-5.21875 Z m 0,0"
           id="path5219" />
      </symbol>
      <symbol
         overflow="visible"
         id="symbol7530">
        <path
           style="stroke:none"
           d=""
           id="path6985" />
      </symbol>
      <symbol
         overflow="visible"
         id="symbol7816">
        <path
           style="stroke:none"
           d="m 6.5625,-2.296875 c 0.171875,0 0.359375,0 0.359375,-0.203125 0,-0.1875 -0.1875,-0.1875 -0.359375,-0.1875 H 1.171875 c -0.171875,0 -0.34375,0 -0.34375,0.1875 0,0.203125 0.171875,0.203125 0.34375,0.203125 z m 0,0"
           id="path1830" />
      </symbol>
    </g>
    <g
       id="g1369">
      <symbol
         overflow="visible"
         id="symbol9012">
        <path
           style="stroke:none"
           d=""
           id="path9641" />
      </symbol>
      <symbol
         overflow="visible"
         id="symbol6989">
        <path
           style="stroke:none"
           d="m 1.5625,-1.59375 c 0.1875,0 0.75,-0.015625 1.125,-0.140625 0.515625,-0.1875 0.609375,-0.515625 0.609375,-0.71875 0,-0.390625 -0.390625,-0.625 -0.859375,-0.625 -0.84375,0 -1.96875,0.640625 -1.96875,1.84375 0,0.703125 0.4375,1.296875 1.25,1.296875 1.1875,0 1.734375,-0.6875 1.734375,-0.78125 0,-0.046875 -0.0625,-0.125 -0.125,-0.125 -0.03125,0 -0.046875,0.015625 -0.109375,0.078125 C 2.671875,-0.125 1.859375,-0.125 1.734375,-0.125 1.3125,-0.125 1.03125,-0.40625 1.03125,-0.96875 c 0,-0.09375 0,-0.234375 0.09375,-0.625 z M 1.171875,-1.78125 C 1.46875,-2.796875 2.234375,-2.875 2.4375,-2.875 2.734375,-2.875 3,-2.71875 3,-2.453125 3,-1.78125 1.8125,-1.78125 1.515625,-1.78125 Z m 0,0"
           id="path5130" />
      </symbol>
      <symbol
         overflow="visible"
         id="symbol7744">
        <path
           style="stroke:none"
           d="m 3.046875,-2.671875 c -0.25,0.046875 -0.34375,0.234375 -0.34375,0.390625 0,0.1875 0.140625,0.265625 0.265625,0.265625 0.15625,0 0.390625,-0.109375 0.390625,-0.453125 0,-0.46875 -0.53125,-0.609375 -0.90625,-0.609375 -1.046875,0 -2.015625,0.96875 -2.015625,1.9375 0,0.59375 0.40625,1.203125 1.28125,1.203125 1.1875,0 1.734375,-0.6875 1.734375,-0.78125 0,-0.046875 -0.0625,-0.125 -0.125,-0.125 -0.03125,0 -0.046875,0.015625 -0.109375,0.078125 C 2.671875,-0.125 1.859375,-0.125 1.734375,-0.125 c -0.5,0 -0.71875,-0.34375 -0.71875,-0.78125 0,-0.1875 0.09375,-0.953125 0.453125,-1.4375 0.265625,-0.34375 0.625,-0.53125 0.984375,-0.53125 0.09375,0 0.421875,0.015625 0.59375,0.203125 z m 0,0"
           id="path4426" />
      </symbol>
      <symbol
         overflow="visible"
         id="symbol1621">
        <path
           style="stroke:none"
           d=""
           id="path2764" />
      </symbol>
      <symbol
         overflow="visible"
         id="symbol1834">
        <path
           style="stroke:none"
           d="m 2.875,-1.609375 c 0.03125,-0.109375 0.078125,-0.296875 0.078125,-0.3125 0,-0.09375 -0.0625,-0.1875 -0.1875,-0.1875 -0.078125,0 -0.203125,0.0625 -0.25,0.203125 -0.09375,-0.125 -0.28125,-0.296875 -0.59375,-0.296875 -0.703125,0 -1.40625,0.6875 -1.40625,1.390625 0,0.515625 0.375,0.875 0.875,0.875 0.40625,0 0.734375,-0.296875 0.796875,-0.359375 0.078125,0.25 0.359375,0.359375 0.578125,0.359375 0.203125,0 0.34375,-0.125 0.4375,-0.28125 0.140625,-0.203125 0.203125,-0.46875 0.203125,-0.5 0,-0.0625 -0.078125,-0.0625 -0.109375,-0.0625 -0.078125,0 -0.09375,0.03125 -0.109375,0.109375 -0.09375,0.359375 -0.21875,0.5625 -0.390625,0.5625 -0.140625,0 -0.203125,-0.109375 -0.203125,-0.265625 0,-0.078125 0.046875,-0.265625 0.078125,-0.40625 z M 2.21875,-0.65625 c -0.03125,0.0625 -0.03125,0.078125 -0.109375,0.171875 -0.1875,0.21875 -0.453125,0.375 -0.703125,0.375 -0.171875,0 -0.4375,-0.09375 -0.4375,-0.515625 0,-0.234375 0.125,-0.75 0.296875,-1.015625 0.1875,-0.265625 0.453125,-0.390625 0.65625,-0.390625 0.21875,0 0.4375,0.125 0.515625,0.4375 z m 0,0"
           id="path1707" />
      </symbol>
      <symbol
         overflow="visible"
         id="symbol9309">
        <path
           style="stroke:none"
           d="M 1.5625,-3.265625 C 1.59375,-3.34375 1.59375,-3.34375 1.59375,-3.375 c 0,-0.078125 -0.078125,-0.078125 -0.15625,-0.078125 L 0.828125,-3.40625 c -0.09375,0 -0.09375,0 -0.125,0.03125 -0.015625,0.015625 -0.03125,0.078125 -0.03125,0.109375 0,0.078125 0.078125,0.078125 0.140625,0.078125 0.015625,0 0.09375,0 0.171875,0.015625 0.09375,0.015625 0.109375,0.03125 0.109375,0.0625 0,0.03125 -0.0625,0.234375 -0.09375,0.34375 L 0.59375,-1.09375 C 0.5625,-1 0.546875,-0.921875 0.546875,-0.8125 c 0,0.515625 0.375,0.875 0.859375,0.875 0.71875,0 1.40625,-0.703125 1.40625,-1.390625 0,-0.5 -0.359375,-0.875 -0.875,-0.875 -0.21875,0 -0.453125,0.078125 -0.703125,0.265625 z m -0.15625,3.15625 c -0.203125,0 -0.453125,-0.140625 -0.453125,-0.53125 0,-0.171875 0.03125,-0.328125 0.078125,-0.5 0.015625,-0.0625 0.09375,-0.375 0.109375,-0.40625 C 1.15625,-1.59375 1.5,-2.03125 1.921875,-2.03125 c 0.21875,0 0.4375,0.125 0.4375,0.5 0,0.1875 -0.09375,0.65625 -0.25,0.953125 -0.171875,0.28125 -0.453125,0.46875 -0.703125,0.46875 z m 0,0"
           id="path4917" />
      </symbol>
      <symbol
         overflow="visible"
         id="symbol739">
        <path
           style="stroke:none"
           d=""
           id="path624" />
      </symbol>
      <symbol
         overflow="visible"
         id="symbol4148">
        <path
           style="stroke:none"
           d="m 3.296875,2.390625 c 0,-0.03125 0,-0.046875 -0.171875,-0.21875 C 1.890625,0.921875 1.5625,-0.96875 1.5625,-2.5 c 0,-1.734375 0.375,-3.46875 1.609375,-4.703125 0.125,-0.125 0.125,-0.140625 0.125,-0.171875 0,-0.078125 -0.03125,-0.109375 -0.09375,-0.109375 -0.109375,0 -1,0.6875 -1.59375,1.953125 -0.5,1.09375 -0.625,2.203125 -0.625,3.03125 0,0.78125 0.109375,1.984375 0.65625,3.125 C 2.25,1.84375 3.09375,2.5 3.203125,2.5 c 0.0625,0 0.09375,-0.03125 0.09375,-0.109375 z m 0,0"
           id="path8864" />
      </symbol>
      <symbol
         overflow="visible"
         id="symbol9693">
        <path
           style="stroke:none"
           d="m 2.9375,-6.375 c 0,-0.25 0,-0.265625 -0.234375,-0.265625 C 2.078125,-6 1.203125,-6 0.890625,-6 v 0.3125 c 0.203125,0 0.78125,0 1.296875,-0.265625 v 5.171875 c 0,0.359375 -0.03125,0.46875 -0.921875,0.46875 h -0.3125 V 0 c 0.34375,-0.03125 1.203125,-0.03125 1.609375,-0.03125 0.390625,0 1.265625,0 1.609375,0.03125 v -0.3125 h -0.3125 c -0.90625,0 -0.921875,-0.109375 -0.921875,-0.46875 z m 0,0"
           id="path1991" />
      </symbol>
      <symbol
         overflow="visible"
         id="symbol6464">
        <path
           style="stroke:none"
           d="m 4.078125,-2.296875 h 2.78125 C 7,-2.296875 7.1875,-2.296875 7.1875,-2.5 7.1875,-2.6875 7,-2.6875 6.859375,-2.6875 h -2.78125 v -2.796875 c 0,-0.140625 0,-0.328125 -0.203125,-0.328125 -0.203125,0 -0.203125,0.1875 -0.203125,0.328125 V -2.6875 h -2.78125 c -0.140625,0 -0.328125,0 -0.328125,0.1875 0,0.203125 0.1875,0.203125 0.328125,0.203125 h 2.78125 V 0.5 c 0,0.140625 0,0.328125 0.203125,0.328125 0.203125,0 0.203125,-0.1875 0.203125,-0.328125 z m 0,0"
           id="path6699" />
      </symbol>
      <symbol
         overflow="visible"
         id="symbol5442">
        <path
           style="stroke:none"
           d="m 2.875,-2.5 c 0,-0.765625 -0.109375,-1.96875 -0.65625,-3.109375 -0.59375,-1.21875 -1.453125,-1.875 -1.546875,-1.875 -0.0625,0 -0.109375,0.046875 -0.109375,0.109375 0,0.03125 0,0.046875 0.1875,0.234375 0.984375,0.984375 1.546875,2.5625 1.546875,4.640625 0,1.71875 -0.359375,3.46875 -1.59375,4.71875 C 0.5625,2.34375 0.5625,2.359375 0.5625,2.390625 0.5625,2.453125 0.609375,2.5 0.671875,2.5 0.765625,2.5 1.671875,1.8125 2.25,0.546875 2.765625,-0.546875 2.875,-1.65625 2.875,-2.5 Z m 0,0"
           id="path4188" />
      </symbol>
    </g>
    <g
       id="g8368">
      <symbol
         overflow="visible"
         id="symbol1798">
        <path
           style="stroke:none"
           d=""
           id="path8110" />
      </symbol>
      <symbol
         overflow="visible"
         id="symbol5379">
        <path
           style="stroke:none"
           d="m 1.5625,-1.59375 c 0.1875,0 0.75,-0.015625 1.125,-0.140625 0.515625,-0.1875 0.609375,-0.515625 0.609375,-0.71875 0,-0.390625 -0.390625,-0.625 -0.859375,-0.625 -0.84375,0 -1.96875,0.640625 -1.96875,1.84375 0,0.703125 0.4375,1.296875 1.25,1.296875 1.1875,0 1.734375,-0.6875 1.734375,-0.78125 0,-0.046875 -0.0625,-0.125 -0.125,-0.125 -0.03125,0 -0.046875,0.015625 -0.109375,0.078125 C 2.671875,-0.125 1.859375,-0.125 1.734375,-0.125 1.3125,-0.125 1.03125,-0.40625 1.03125,-0.96875 c 0,-0.09375 0,-0.234375 0.09375,-0.625 z M 1.171875,-1.78125 C 1.46875,-2.796875 2.234375,-2.875 2.4375,-2.875 2.734375,-2.875 3,-2.71875 3,-2.453125 3,-1.78125 1.8125,-1.78125 1.515625,-1.78125 Z m 0,0"
           id="path6132" />
      </symbol>
      <symbol
         overflow="visible"
         id="symbol7707">
        <path
           style="stroke:none"
           d="m 3.046875,-2.671875 c -0.25,0.046875 -0.34375,0.234375 -0.34375,0.390625 0,0.1875 0.140625,0.265625 0.265625,0.265625 0.15625,0 0.390625,-0.109375 0.390625,-0.453125 0,-0.46875 -0.53125,-0.609375 -0.90625,-0.609375 -1.046875,0 -2.015625,0.96875 -2.015625,1.9375 0,0.59375 0.40625,1.203125 1.28125,1.203125 1.1875,0 1.734375,-0.6875 1.734375,-0.78125 0,-0.046875 -0.0625,-0.125 -0.125,-0.125 -0.03125,0 -0.046875,0.015625 -0.109375,0.078125 C 2.671875,-0.125 1.859375,-0.125 1.734375,-0.125 c -0.5,0 -0.71875,-0.34375 -0.71875,-0.78125 0,-0.1875 0.09375,-0.953125 0.453125,-1.4375 0.265625,-0.34375 0.625,-0.53125 0.984375,-0.53125 0.09375,0 0.421875,0.015625 0.59375,0.203125 z m 0,0"
           id="path1510" />
      </symbol>
      <symbol
         overflow="visible"
         id="symbol357">
        <path
           style="stroke:none"
           d="m 2.1875,-4.625 c 0,-0.015625 0.015625,-0.109375 0.015625,-0.109375 0,-0.046875 -0.015625,-0.109375 -0.109375,-0.109375 -0.140625,0 -0.71875,0.0625 -0.890625,0.078125 -0.046875,0 -0.15625,0.015625 -0.15625,0.15625 0,0.09375 0.109375,0.09375 0.1875,0.09375 0.328125,0 0.328125,0.0625 0.328125,0.109375 0,0.046875 -0.015625,0.09375 -0.015625,0.15625 L 0.5625,-0.3125 c -0.046875,0.125 -0.046875,0.140625 -0.046875,0.15625 0,0.109375 0.09375,0.21875 0.25,0.21875 0.078125,0 0.203125,-0.03125 0.28125,-0.171875 C 1.0625,-0.15625 1.125,-0.40625 1.15625,-0.546875 l 0.171875,-0.625 C 1.34375,-1.28125 1.421875,-1.546875 1.4375,-1.640625 1.5,-1.90625 1.5,-1.921875 1.640625,-2.140625 1.875,-2.484375 2.21875,-2.875 2.765625,-2.875 c 0.390625,0 0.40625,0.3125 0.40625,0.484375 0,0.421875 -0.296875,1.1875 -0.40625,1.484375 -0.078125,0.203125 -0.109375,0.265625 -0.109375,0.375 0,0.375 0.3125,0.59375 0.65625,0.59375 0.703125,0 1.015625,-0.953125 1.015625,-1.0625 0,-0.09375 -0.09375,-0.09375 -0.125,-0.09375 -0.09375,0 -0.09375,0.046875 -0.125,0.125 -0.15625,0.5625 -0.46875,0.84375 -0.734375,0.84375 -0.15625,0 -0.1875,-0.09375 -0.1875,-0.25 0,-0.15625 0.046875,-0.25 0.171875,-0.5625 C 3.40625,-1.15625 3.6875,-1.890625 3.6875,-2.28125 c 0,-0.109375 0,-0.40625 -0.25,-0.609375 -0.125,-0.078125 -0.328125,-0.1875 -0.65625,-0.1875 -0.5,0 -0.875,0.28125 -1.125,0.578125 z m 0,0"
           id="path56" />
      </symbol>
      <symbol
         overflow="visible"
         id="symbol3912">
        <path
           style="stroke:none"
           d=""
           id="path6767" />
      </symbol>
      <symbol
         overflow="visible"
         id="symbol5945">
        <path
           style="stroke:none"
           d="M 1.5625,-3.265625 C 1.59375,-3.34375 1.59375,-3.34375 1.59375,-3.375 c 0,-0.078125 -0.078125,-0.078125 -0.15625,-0.078125 L 0.828125,-3.40625 c -0.09375,0 -0.09375,0 -0.125,0.03125 -0.015625,0.015625 -0.03125,0.078125 -0.03125,0.109375 0,0.078125 0.078125,0.078125 0.140625,0.078125 0.015625,0 0.09375,0 0.171875,0.015625 0.09375,0.015625 0.109375,0.03125 0.109375,0.0625 0,0.03125 -0.0625,0.234375 -0.09375,0.34375 L 0.59375,-1.09375 C 0.5625,-1 0.546875,-0.921875 0.546875,-0.8125 c 0,0.515625 0.375,0.875 0.859375,0.875 0.71875,0 1.40625,-0.703125 1.40625,-1.390625 0,-0.5 -0.359375,-0.875 -0.875,-0.875 -0.21875,0 -0.453125,0.078125 -0.703125,0.265625 z m -0.15625,3.15625 c -0.203125,0 -0.453125,-0.140625 -0.453125,-0.53125 0,-0.171875 0.03125,-0.328125 0.078125,-0.5 0.015625,-0.0625 0.09375,-0.375 0.109375,-0.40625 C 1.15625,-1.59375 1.5,-2.03125 1.921875,-2.03125 c 0.21875,0 0.4375,0.125 0.4375,0.5 0,0.1875 -0.09375,0.65625 -0.25,0.953125 -0.171875,0.28125 -0.453125,0.46875 -0.703125,0.46875 z m 0,0"
           id="path3225" />
      </symbol>
      <symbol
         overflow="visible"
         id="symbol2234">
        <path
           style="stroke:none"
           d="m 2.875,-1.609375 c 0.03125,-0.109375 0.078125,-0.296875 0.078125,-0.3125 0,-0.09375 -0.0625,-0.1875 -0.1875,-0.1875 -0.078125,0 -0.203125,0.0625 -0.25,0.203125 -0.09375,-0.125 -0.28125,-0.296875 -0.59375,-0.296875 -0.703125,0 -1.40625,0.6875 -1.40625,1.390625 0,0.515625 0.375,0.875 0.875,0.875 0.40625,0 0.734375,-0.296875 0.796875,-0.359375 0.078125,0.25 0.359375,0.359375 0.578125,0.359375 0.203125,0 0.34375,-0.125 0.4375,-0.28125 0.140625,-0.203125 0.203125,-0.46875 0.203125,-0.5 0,-0.0625 -0.078125,-0.0625 -0.109375,-0.0625 -0.078125,0 -0.09375,0.03125 -0.109375,0.109375 -0.09375,0.359375 -0.21875,0.5625 -0.390625,0.5625 -0.140625,0 -0.203125,-0.109375 -0.203125,-0.265625 0,-0.078125 0.046875,-0.265625 0.078125,-0.40625 z M 2.21875,-0.65625 c -0.03125,0.0625 -0.03125,0.078125 -0.109375,0.171875 -0.1875,0.21875 -0.453125,0.375 -0.703125,0.375 -0.171875,0 -0.4375,-0.09375 -0.4375,-0.515625 0,-0.234375 0.125,-0.75 0.296875,-1.015625 0.1875,-0.265625 0.453125,-0.390625 0.65625,-0.390625 0.21875,0 0.4375,0.125 0.515625,0.4375 z m 0,0"
           id="path4687" />
      </symbol>
      <symbol
         overflow="visible"
         id="symbol2631">
        <path
           style="stroke:none"
           d=""
           id="path6534" />
      </symbol>
      <symbol
         overflow="visible"
         id="symbol9018">
        <path
           style="stroke:none"
           d="m 6.84375,-3.265625 c 0.15625,0 0.34375,0 0.34375,-0.1875 C 7.1875,-3.65625 7,-3.65625 6.859375,-3.65625 h -5.96875 c -0.140625,0 -0.328125,0 -0.328125,0.203125 0,0.1875 0.1875,0.1875 0.328125,0.1875 z m 0.015625,1.9375 c 0.140625,0 0.328125,0 0.328125,-0.203125 0,-0.1875 -0.1875,-0.1875 -0.34375,-0.1875 H 0.890625 c -0.140625,0 -0.328125,0 -0.328125,0.1875 0,0.203125 0.1875,0.203125 0.328125,0.203125 z m 0,0"
           id="path962" />
      </symbol>
      <symbol
         overflow="visible"
         id="symbol3124">
        <path
           style="stroke:none"
           d=""
           id="path2121" />
      </symbol>
      <symbol
         overflow="visible"
         id="symbol7480">
        <path
           style="stroke:none"
           d="M 2.46875,-5.21875 C 1.15625,-4.296875 0.796875,-2.8125 0.796875,-1.75 c 0,0.984375 0.296875,2.515625 1.671875,3.484375 0.0625,0 0.140625,0 0.140625,-0.078125 0,-0.046875 -0.015625,-0.0625 -0.0625,-0.109375 C 1.609375,0.703125 1.28125,-0.46875 1.28125,-1.734375 1.28125,-3.625 2,-4.546875 2.5625,-5.0625 2.59375,-5.09375 2.609375,-5.109375 2.609375,-5.140625 2.609375,-5.21875 2.53125,-5.21875 2.46875,-5.21875 Z m 0,0"
           id="path951" />
      </symbol>
      <symbol
         overflow="visible"
         id="symbol5131">
        <path
           style="stroke:none"
           d="m 3.21875,-1.578125 h 2.140625 c 0.09375,0 0.25,0 0.25,-0.15625 0,-0.1875 -0.15625,-0.1875 -0.25,-0.1875 H 3.21875 V -4.0625 c 0,-0.078125 0,-0.25 -0.15625,-0.25 -0.171875,0 -0.171875,0.15625 -0.171875,0.25 v 2.140625 H 0.75 c -0.09375,0 -0.265625,0 -0.265625,0.171875 0,0.171875 0.15625,0.171875 0.265625,0.171875 H 2.890625 V 0.5625 c 0,0.09375 0,0.265625 0.15625,0.265625 0.171875,0 0.171875,-0.171875 0.171875,-0.265625 z m 0,0"
           id="path8918" />
      </symbol>
      <symbol
         overflow="visible"
         id="symbol7963">
        <path
           style="stroke:none"
           d="m 0.625,-5.21875 c -0.046875,0 -0.125,0 -0.125,0.078125 0,0.03125 0.015625,0.046875 0.0625,0.109375 0.59375,0.546875 1.265625,1.484375 1.265625,3.28125 0,1.453125 -0.453125,2.5625 -1.203125,3.234375 -0.125,0.125 -0.125,0.125 -0.125,0.171875 0,0.03125 0.015625,0.078125 0.078125,0.078125 0.09375,0 0.75,-0.453125 1.21875,-1.328125 0.296875,-0.578125 0.5,-1.328125 0.5,-2.140625 C 2.296875,-2.71875 2,-4.25 0.625,-5.21875 Z m 0,0"
           id="path7057" />
      </symbol>
      <symbol
         overflow="visible"
         id="symbol2642">
        <path
           style="stroke:none"
           d=""
           id="path8049" />
      </symbol>
      <symbol
         overflow="visible"
         id="symbol8547">
        <path
           style="stroke:none"
           d="m 6.5625,-2.296875 c 0.171875,0 0.359375,0 0.359375,-0.203125 0,-0.1875 -0.1875,-0.1875 -0.359375,-0.1875 H 1.171875 c -0.171875,0 -0.34375,0 -0.34375,0.1875 0,0.203125 0.171875,0.203125 0.34375,0.203125 z m 0,0"
           id="path8826" />
      </symbol>
    </g>
  </defs>
  <g
     inkscape:label="Capa 1"
     inkscape:groupmode="layer"
     id="layer1"
     transform="translate(66.179996,-87.48292)">
    <rect
       style="fill:#ffffff;stroke:#000000;stroke-width:0.255704;stroke-linecap:round;stroke-linejoin:round;stroke-miterlimit:3.9"
       id="rect162"
       width="128.69617"
       height="89.000107"
       x="97.304001"
       y="92.660019" />
    <path
       style="fill:none;stroke:#000000;stroke-width:0.264583px;stroke-linecap:butt;stroke-linejoin:miter;stroke-opacity:1"
       d="m 112.63787,181.67213 c 18.90804,-22.05632 37.81608,-44.11265 56.72415,-66.16901"
       id="path164"
       inkscape:path-effect="#path-effect168"
       inkscape:original-d="m 112.63787,181.67213 c 18.90832,-22.05608 37.81637,-44.11241 56.72415,-66.16901"
       sodipodi:nodetypes="cc" />
    <path
       style="fill:none;stroke:#000000;stroke-width:0.251319px;stroke-linecap:butt;stroke-linejoin:miter;stroke-opacity:1"
       d="m 169.36202,181.67213 c 0,-29.67494 0,-59.34964 0,-89.024104"
       id="path291"
       inkscape:path-effect="#path-effect293"
       inkscape:original-d="m 169.36202,181.67213 c 2.7e-4,-29.67494 2.7e-4,-59.34964 0,-89.024104" />
    <text
       xml:space="preserve"
       style="font-size:8.46667px;line-height:1.25;font-family:'Latin Modern Roman';-inkscape-font-specification:'Latin Modern Roman, ';text-align:center;letter-spacing:0px;text-anchor:middle;stroke-width:0.264583"
       x="139.00212"
       y="126.25413"
       id="text7662"><tspan
         sodipodi:role="line"
         id="tspan7660"
         style="stroke-width:0.264583"
         x="139.00212"
         y="126.25413">B persiste</tspan></text>
    <g
       inkscape:label=""
       transform="translate(62.646622,-31.553632)"
       id="g5981">
      <g
         id="g3750">
        <g
           style="fill:#000000;fill-opacity:1"
           id="g4655">
          <use
             xlink:href="#symbol2907"
             x="91.925003"
             y="82.061996"
             id="use936"
             width="100%"
             height="100%" />
        </g>
        <g
           style="fill:#000000;fill-opacity:1"
           id="g1253">
          <use
             xlink:href="#symbol2211"
             x="99.934998"
             y="82.061996"
             id="use6556"
             width="100%"
             height="100%" />
        </g>
        <g
           style="fill:#000000;fill-opacity:1"
           id="g9322">
          <use
             xlink:href="#symbol6095"
             x="111.646"
             y="77.231003"
             id="use1652"
             width="100%"
             height="100%" />
        </g>
        <g
           style="fill:#000000;fill-opacity:1"
           id="g6652">
          <use
             xlink:href="#symbol8639"
             x="115.426"
             y="78.226997"
             id="use4696"
             width="100%"
             height="100%" />
        </g>
        <g
           style="fill:#000000;fill-opacity:1"
           id="g6106">
          <use
             xlink:href="#symbol7436"
             x="119.782"
             y="77.231003"
             id="use7602"
             width="100%"
             height="100%" />
        </g>
        <g
           style="fill:#000000;fill-opacity:1"
           id="g5481">
          <use
             xlink:href="#symbol3428"
             x="122.895"
             y="77.231003"
             id="use4130"
             width="100%"
             height="100%" />
        </g>
        <g
           style="fill:#000000;fill-opacity:1"
           id="g4680">
          <use
             xlink:href="#symbol8639"
             x="126.456"
             y="78.226997"
             id="use765"
             width="100%"
             height="100%" />
        </g>
        <g
           style="fill:#000000;fill-opacity:1"
           id="g7521">
          <use
             xlink:href="#symbol9838"
             x="130.811"
             y="77.231003"
             id="use851"
             width="100%"
             height="100%" />
        </g>
        <g
           style="fill:#000000;fill-opacity:1"
           id="g4129">
          <use
             xlink:href="#symbol3428"
             x="136.927"
             y="77.231003"
             id="use2572"
             width="100%"
             height="100%" />
        </g>
        <g
           style="fill:#000000;fill-opacity:1"
           id="g463">
          <use
             xlink:href="#symbol2030"
             x="140.48801"
             y="78.288002"
             id="use1292"
             width="100%"
             height="100%" />
        </g>
        <g
           style="fill:#000000;fill-opacity:1"
           id="g3161">
          <use
             xlink:href="#symbol2067"
             x="144.14101"
             y="77.231003"
             id="use2047"
             width="100%"
             height="100%" />
        </g>
        <path
           style="fill:none;stroke:#000000;stroke-width:0.398;stroke-linecap:butt;stroke-linejoin:miter;stroke-miterlimit:10;stroke-opacity:1"
           d="M -0.00146875,0.0016875 H 35.607906"
           transform="matrix(1,0,0,-1,111.646,79.572)"
           id="path5085" />
        <g
           style="fill:#000000;fill-opacity:1"
           id="g4364">
          <use
             xlink:href="#symbol3428"
             x="121.885"
             y="85.498001"
             id="use5643"
             width="100%"
             height="100%" />
        </g>
        <g
           style="fill:#000000;fill-opacity:1"
           id="g8865">
          <use
             xlink:href="#symbol8639"
             x="125.446"
             y="86.494003"
             id="use8728"
             width="100%"
             height="100%" />
        </g>
        <g
           style="fill:#000000;fill-opacity:1"
           id="g2749">
          <use
             xlink:href="#symbol3428"
             x="129.802"
             y="85.498001"
             id="use5650"
             width="100%"
             height="100%" />
        </g>
        <g
           style="fill:#000000;fill-opacity:1"
           id="g5511">
          <use
             xlink:href="#symbol2030"
             x="133.362"
             y="86.555"
             id="use2485"
             width="100%"
             height="100%" />
        </g>
        <g
           style="fill:#000000;fill-opacity:1"
           id="g1505">
          <use
             xlink:href="#symbol7816"
             x="150.664"
             y="82.061996"
             id="use9092"
             width="100%"
             height="100%" />
        </g>
        <g
           style="fill:#000000;fill-opacity:1"
           id="g6713">
          <use
             xlink:href="#symbol8846"
             x="161.82201"
             y="77.977997"
             id="use4379"
             width="100%"
             height="100%" />
          <use
             xlink:href="#symbol3428"
             x="166.33963"
             y="77.977997"
             id="use890"
             width="100%"
             height="100%" />
        </g>
        <g
           style="fill:#000000;fill-opacity:1"
           id="g1184">
          <use
             xlink:href="#symbol8639"
             x="169.89999"
             y="78.973999"
             id="use2518"
             width="100%"
             height="100%" />
        </g>
        <path
           style="fill:none;stroke:#000000;stroke-width:0.398;stroke-linecap:butt;stroke-linejoin:miter;stroke-miterlimit:10;stroke-opacity:1"
           d="M -0.0016875,0.0016875 H 12.435812"
           transform="matrix(1,0,0,-1,161.822,79.572)"
           id="path3885" />
        <g
           style="fill:#000000;fill-opacity:1"
           id="g5951">
          <use
             xlink:href="#symbol3428"
             x="164.43201"
             y="85.498001"
             id="use647"
             width="100%"
             height="100%" />
        </g>
        <g
           style="fill:#000000;fill-opacity:1"
           id="g1910">
          <use
             xlink:href="#symbol2030"
             x="167.992"
             y="86.555"
             id="use9023"
             width="100%"
             height="100%" />
        </g>
      </g>
    </g>
    <g
       inkscape:label=""
       transform="translate(62.646622,-10.386964)"
       id="g6204">
      <g
         id="g6202">
        <g
           style="fill:#000000;fill-opacity:1"
           id="g6118">
          <use
             xlink:href="#symbol2907"
             x="91.925003"
             y="82.061996"
             id="use6116"
             width="100%"
             height="100%" />
        </g>
        <g
           style="fill:#000000;fill-opacity:1"
           id="g6122">
          <use
             xlink:href="#symbol2211"
             x="99.934998"
             y="82.061996"
             id="use6120"
             width="100%"
             height="100%" />
        </g>
        <g
           style="fill:#000000;fill-opacity:1"
           id="g6126">
          <use
             xlink:href="#symbol6095"
             x="111.646"
             y="77.231003"
             id="use6124"
             width="100%"
             height="100%" />
        </g>
        <g
           style="fill:#000000;fill-opacity:1"
           id="g6130">
          <use
             xlink:href="#symbol8639"
             x="115.426"
             y="78.226997"
             id="use6128"
             width="100%"
             height="100%" />
        </g>
        <g
           style="fill:#000000;fill-opacity:1"
           id="g6134">
          <use
             xlink:href="#symbol7436"
             x="119.782"
             y="77.231003"
             id="use6132"
             width="100%"
             height="100%" />
        </g>
        <g
           style="fill:#000000;fill-opacity:1"
           id="g6138">
          <use
             xlink:href="#symbol3428"
             x="122.895"
             y="77.231003"
             id="use6136"
             width="100%"
             height="100%" />
        </g>
        <g
           style="fill:#000000;fill-opacity:1"
           id="g6142">
          <use
             xlink:href="#symbol8639"
             x="126.456"
             y="78.226997"
             id="use6140"
             width="100%"
             height="100%" />
        </g>
        <g
           style="fill:#000000;fill-opacity:1"
           id="g6146">
          <use
             xlink:href="#symbol9838"
             x="130.811"
             y="77.231003"
             id="use6144"
             width="100%"
             height="100%" />
        </g>
        <g
           style="fill:#000000;fill-opacity:1"
           id="g6150">
          <use
             xlink:href="#symbol3428"
             x="136.927"
             y="77.231003"
             id="use6148"
             width="100%"
             height="100%" />
        </g>
        <g
           style="fill:#000000;fill-opacity:1"
           id="g6154">
          <use
             xlink:href="#symbol2030"
             x="140.48801"
             y="78.288002"
             id="use6152"
             width="100%"
             height="100%" />
        </g>
        <g
           style="fill:#000000;fill-opacity:1"
           id="g6158">
          <use
             xlink:href="#symbol2067"
             x="144.14101"
             y="77.231003"
             id="use6156"
             width="100%"
             height="100%" />
        </g>
        <path
           style="fill:none;stroke:#000000;stroke-width:0.398;stroke-linecap:butt;stroke-linejoin:miter;stroke-miterlimit:10;stroke-opacity:1"
           d="M -0.00146875,0.0016875 H 35.607906"
           transform="matrix(1,0,0,-1,111.646,79.572)"
           id="path6160" />
        <g
           style="fill:#000000;fill-opacity:1"
           id="g6164">
          <use
             xlink:href="#symbol3428"
             x="121.885"
             y="85.498001"
             id="use6162"
             width="100%"
             height="100%" />
        </g>
        <g
           style="fill:#000000;fill-opacity:1"
           id="g6168">
          <use
             xlink:href="#symbol8639"
             x="125.446"
             y="86.494003"
             id="use6166"
             width="100%"
             height="100%" />
        </g>
        <g
           style="fill:#000000;fill-opacity:1"
           id="g6172">
          <use
             xlink:href="#symbol3428"
             x="129.802"
             y="85.498001"
             id="use6170"
             width="100%"
             height="100%" />
        </g>
        <g
           style="fill:#000000;fill-opacity:1"
           id="g6176">
          <use
             xlink:href="#symbol2030"
             x="133.362"
             y="86.555"
             id="use6174"
             width="100%"
             height="100%" />
        </g>
        <g
           style="fill:#000000;fill-opacity:1"
           id="g6180">
          <use
             xlink:href="#symbol7816"
             x="150.664"
             y="82.061996"
             id="use6178"
             width="100%"
             height="100%" />
        </g>
        <g
           style="fill:#000000;fill-opacity:1"
           id="g6186">
          <use
             xlink:href="#symbol8846"
             x="161.82201"
             y="77.977997"
             id="use6182"
             width="100%"
             height="100%" />
          <use
             xlink:href="#symbol3428"
             x="166.33963"
             y="77.977997"
             id="use6184"
             width="100%"
             height="100%" />
        </g>
        <g
           style="fill:#000000;fill-opacity:1"
           id="g6190">
          <use
             xlink:href="#symbol8639"
             x="169.89999"
             y="78.973999"
             id="use6188"
             width="100%"
             height="100%" />
        </g>
        <path
           style="fill:none;stroke:#000000;stroke-width:0.398;stroke-linecap:butt;stroke-linejoin:miter;stroke-miterlimit:10;stroke-opacity:1"
           d="M -0.0016875,0.0016875 H 12.435812"
           transform="matrix(1,0,0,-1,161.822,79.572)"
           id="path6192" />
        <g
           style="fill:#000000;fill-opacity:1"
           id="g6196">
          <use
             xlink:href="#symbol3428"
             x="164.43201"
             y="85.498001"
             id="use6194"
             width="100%"
             height="100%" />
        </g>
        <g
           style="fill:#000000;fill-opacity:1"
           id="g6200">
          <use
             xlink:href="#symbol2030"
             x="167.992"
             y="86.555"
             id="use6198"
             width="100%"
             height="100%" />
        </g>
      </g>
    </g>
    <text
       xml:space="preserve"
       style="font-size:8.46667px;line-height:1.25;font-family:'Latin Modern Roman';-inkscape-font-specification:'Latin Modern Roman, ';text-align:center;letter-spacing:0px;text-anchor:middle;stroke-width:0.264583"
       x="156.69147"
       y="68.395332"
       id="text8078"><tspan
         sodipodi:role="line"
         id="tspan8076"
         style="stroke-width:0.264583"
         x="156.69147"
         y="68.395332" /></text>
    <path
       style="fill:none;stroke:#000000;stroke-width:0.264583px;stroke-linecap:butt;stroke-linejoin:miter;stroke-opacity:1"
       d="m 169.36202,115.50312 c 16.92051,22.05663 33.8408,44.11296 50.76086,66.169"
       id="path15168"
       inkscape:path-effect="#path-effect15170"
       inkscape:original-d="m 169.36202,115.50312 c 16.92055,22.0566 33.84084,44.11293 50.76086,66.169"
       sodipodi:nodetypes="cc" />
    <g
       inkscape:label=""
       transform="translate(89.907938,107.98842)"
       id="g15743">
      <g
         id="g5011">
        <g
           style="fill:#000000;fill-opacity:1"
           id="g7956">
          <use
             xlink:href="#symbol6989"
             x="93.121002"
             y="77.877998"
             id="use4732"
             width="100%"
             height="100%" />
        </g>
        <g
           style="fill:#000000;fill-opacity:1"
           id="g4056">
          <use
             xlink:href="#symbol1834"
             x="96.901001"
             y="78.874001"
             id="use8346"
             width="100%"
             height="100%" />
        </g>
        <path
           style="fill:none;stroke:#000000;stroke-width:0.398;stroke-linecap:butt;stroke-linejoin:miter;stroke-miterlimit:10;stroke-opacity:1"
           d="M 9.375e-5,-6.5625e-4 H 8.136813"
           transform="matrix(1,0,0,-1,93.121,79.472)"
           id="path4534" />
        <g
           style="fill:#000000;fill-opacity:1"
           id="g4031">
          <use
             xlink:href="#symbol7744"
             x="93.231003"
             y="85.398003"
             id="use3828"
             width="100%"
             height="100%" />
        </g>
        <g
           style="fill:#000000;fill-opacity:1"
           id="g6898">
          <use
             xlink:href="#symbol1834"
             x="96.791"
             y="86.394997"
             id="use3104"
             width="100%"
             height="100%" />
        </g>
        <g
           style="fill:#000000;fill-opacity:1"
           id="g9151">
          <use
             xlink:href="#symbol4148"
             x="102.452"
             y="81.962997"
             id="use7144"
             width="100%"
             height="100%" />
          <use
             xlink:href="#symbol9693"
             x="106.32645"
             y="81.962997"
             id="use5159"
             width="100%"
             height="100%" />
        </g>
        <g
           style="fill:#000000;fill-opacity:1"
           id="g4893">
          <use
             xlink:href="#symbol6464"
             x="113.51945"
             y="81.962997"
             id="use9865"
             width="100%"
             height="100%" />
        </g>
        <g
           style="fill:#000000;fill-opacity:1"
           id="g9079">
          <use
             xlink:href="#symbol7744"
             x="125.031"
             y="77.817001"
             id="use1409"
             width="100%"
             height="100%" />
        </g>
        <g
           style="fill:#000000;fill-opacity:1"
           id="g9978">
          <use
             xlink:href="#symbol9309"
             x="128.592"
             y="78.874001"
             id="use3914"
             width="100%"
             height="100%" />
        </g>
        <path
           style="fill:none;stroke:#000000;stroke-width:0.398;stroke-linecap:butt;stroke-linejoin:miter;stroke-miterlimit:10;stroke-opacity:1"
           d="M -3.125e-4,-6.5625e-4 H 7.917656"
           transform="matrix(1,0,0,-1,124.68,79.472)"
           id="path2700" />
        <g
           style="fill:#000000;fill-opacity:1"
           id="g3131">
          <use
             xlink:href="#symbol7744"
             x="124.68"
             y="85.398003"
             id="use2520"
             width="100%"
             height="100%" />
        </g>
        <g
           style="fill:#000000;fill-opacity:1"
           id="g4880">
          <use
             xlink:href="#symbol1834"
             x="128.24001"
             y="86.394997"
             id="use756"
             width="100%"
             height="100%" />
        </g>
        <g
           style="fill:#000000;fill-opacity:1"
           id="g9898">
          <use
             xlink:href="#symbol5442"
             x="133.791"
             y="81.962997"
             id="use3526"
             width="100%"
             height="100%" />
        </g>
      </g>
    </g>
    <g
       id="g16456"
       transform="translate(44.450006,-15.875)">
      <use
         xlink:href="#symbol6989"
         x="93.121002"
         y="77.877998"
         id="use15816"
         width="100%"
         height="100%"
         transform="translate(27.859216,124.18649)"
         style="fill:#000000;fill-opacity:1" />
      <use
         xlink:href="#symbol1834"
         x="96.901001"
         y="78.874001"
         id="use15820"
         width="100%"
         height="100%"
         transform="translate(27.859216,124.18649)"
         style="fill:#000000;fill-opacity:1" />
      <path
         style="fill:none;stroke:#000000;stroke-width:0.398;stroke-linecap:butt;stroke-linejoin:miter;stroke-miterlimit:10;stroke-opacity:1"
         d="m 120.98031,203.65915 h 8.13672"
         id="path15824"
         sodipodi:nodetypes="cc" />
      <use
         xlink:href="#symbol7744"
         x="93.231003"
         y="85.398003"
         id="use15826"
         width="100%"
         height="100%"
         transform="translate(27.859216,124.18649)"
         style="fill:#000000;fill-opacity:1" />
      <use
         xlink:href="#symbol1834"
         x="96.791"
         y="86.394997"
         id="use15830"
         width="100%"
         height="100%"
         transform="translate(27.859216,124.18649)"
         style="fill:#000000;fill-opacity:1" />
    </g>
    <text
       xml:space="preserve"
       style="font-size:8.46667px;line-height:1.25;font-family:'Latin Modern Roman';-inkscape-font-specification:'Latin Modern Roman, ';text-align:center;letter-spacing:0px;text-anchor:middle;stroke-width:0.264583"
       x="190.5923"
       y="174.20131"
       id="text16873"><tspan
         sodipodi:role="line"
         id="tspan16871"
         style="stroke-width:0.264583"
         x="190.5923"
         y="174.20131">B persiste</tspan></text>
    <text
       xml:space="preserve"
       style="font-size:8.46667px;line-height:1.25;font-family:'Latin Modern Roman';-inkscape-font-specification:'Latin Modern Roman, ';text-align:center;letter-spacing:0px;text-anchor:middle;stroke-width:0.264583"
       x="144.31645"
       y="179.03012"
       id="text16877"><tspan
         sodipodi:role="line"
         id="tspan16875"
         style="stroke-width:0.264583"
         x="144.31645"
         y="179.03012">B se extingue</tspan></text>
    <text
       xml:space="preserve"
       style="font-size:8.46667px;line-height:1.25;font-family:'Latin Modern Roman';-inkscape-font-specification:'Latin Modern Roman, ';text-align:center;letter-spacing:0px;text-anchor:middle;stroke-width:0.264583"
       x="196.59921"
       y="110.52319"
       id="text16881"><tspan
         sodipodi:role="line"
         id="tspan16879"
         style="stroke-width:0.264583"
         x="196.59921"
         y="110.52319">B se extingue</tspan></text>
    <g
       id="g23219"
       transform="translate(20.739637,83.559671)">
      <g
         inkscape:label=""
         transform="translate(69.704989,61.761089)"
         id="g17590">
        <g
           id="g1443">
          <g
             style="fill:#000000;fill-opacity:1"
             id="g4874">
            <use
               xlink:href="#symbol5379"
               x="93.121002"
               y="77.917"
               id="use2432"
               width="100%"
               height="100%" />
          </g>
          <g
             style="fill:#000000;fill-opacity:1"
             id="g9148">
            <use
               xlink:href="#symbol5945"
               x="96.901001"
               y="78.973999"
               id="use2031"
               width="100%"
               height="100%" />
          </g>
          <path
             style="fill:none;stroke:#000000;stroke-width:0.398;stroke-linecap:butt;stroke-linejoin:miter;stroke-miterlimit:10;stroke-opacity:1"
             d="M 9.375e-5,0.0016875 H 7.433688"
             transform="matrix(1,0,0,-1,93.121,79.572)"
             id="path4372" />
          <g
             style="fill:#000000;fill-opacity:1"
             id="g2737">
            <use
               xlink:href="#symbol7707"
               x="93.231003"
               y="85.498001"
               id="use4113"
               width="100%"
               height="100%" />
          </g>
          <g
             style="fill:#000000;fill-opacity:1"
             id="g9258">
            <use
               xlink:href="#symbol5945"
               x="96.791"
               y="86.555"
               id="use3407"
               width="100%"
               height="100%" />
          </g>
          <g
             style="fill:#000000;fill-opacity:1"
             id="g8849">
            <use
               xlink:href="#symbol9018"
               x="104.517"
               y="82.061996"
               id="use3809"
               width="100%"
               height="100%" />
          </g>
          <g
             style="fill:#000000;fill-opacity:1"
             id="g3497">
            <use
               xlink:href="#symbol5379"
               x="116.228"
               y="77.231003"
               id="use2100"
               width="100%"
               height="100%" />
          </g>
          <g
             style="fill:#000000;fill-opacity:1"
             id="g1747">
            <use
               xlink:href="#symbol2234"
               x="120.008"
               y="78.226997"
               id="use3587"
               width="100%"
               height="100%" />
          </g>
          <g
             style="fill:#000000;fill-opacity:1"
             id="g3018">
            <use
               xlink:href="#symbol7480"
               x="124.364"
               y="77.231003"
               id="use3894"
               width="100%"
               height="100%" />
          </g>
          <g
             style="fill:#000000;fill-opacity:1"
             id="g9559">
            <use
               xlink:href="#symbol7707"
               x="127.477"
               y="77.231003"
               id="use8926"
               width="100%"
               height="100%" />
          </g>
          <g
             style="fill:#000000;fill-opacity:1"
             id="g2936">
            <use
               xlink:href="#symbol2234"
               x="131.03799"
               y="78.226997"
               id="use6670"
               width="100%"
               height="100%" />
          </g>
          <g
             style="fill:#000000;fill-opacity:1"
             id="g9850">
            <use
               xlink:href="#symbol5131"
               x="135.39301"
               y="77.231003"
               id="use8282"
               width="100%"
               height="100%" />
          </g>
          <g
             style="fill:#000000;fill-opacity:1"
             id="g6059">
            <use
               xlink:href="#symbol7707"
               x="141.509"
               y="77.231003"
               id="use5171"
               width="100%"
               height="100%" />
          </g>
          <g
             style="fill:#000000;fill-opacity:1"
             id="g9754">
            <use
               xlink:href="#symbol5945"
               x="145.07001"
               y="78.288002"
               id="use4986"
               width="100%"
               height="100%" />
          </g>
          <g
             style="fill:#000000;fill-opacity:1"
             id="g9956">
            <use
               xlink:href="#symbol7963"
               x="148.72301"
               y="77.231003"
               id="use5418"
               width="100%"
               height="100%" />
          </g>
          <path
             style="fill:none;stroke:#000000;stroke-width:0.398;stroke-linecap:butt;stroke-linejoin:miter;stroke-miterlimit:10;stroke-opacity:1"
             d="M -0.0014375,0.0016875 H 35.607938"
             transform="matrix(1,0,0,-1,116.228,79.572)"
             id="path505" />
          <g
             style="fill:#000000;fill-opacity:1"
             id="g9775">
            <use
               xlink:href="#symbol7707"
               x="126.467"
               y="85.498001"
               id="use8907"
               width="100%"
               height="100%" />
          </g>
          <g
             style="fill:#000000;fill-opacity:1"
             id="g9450">
            <use
               xlink:href="#symbol2234"
               x="130.028"
               y="86.494003"
               id="use3469"
               width="100%"
               height="100%" />
          </g>
          <g
             style="fill:#000000;fill-opacity:1"
             id="g5621">
            <use
               xlink:href="#symbol7707"
               x="134.384"
               y="85.498001"
               id="use1564"
               width="100%"
               height="100%" />
          </g>
          <g
             style="fill:#000000;fill-opacity:1"
             id="g4279">
            <use
               xlink:href="#symbol5945"
               x="137.944"
               y="86.555"
               id="use4168"
               width="100%"
               height="100%" />
          </g>
          <g
             style="fill:#000000;fill-opacity:1"
             id="g6658">
            <use
               xlink:href="#symbol8547"
               x="155.246"
               y="82.061996"
               id="use1246"
               width="100%"
               height="100%" />
          </g>
          <g
             style="fill:#000000;fill-opacity:1"
             id="g2810">
            <use
               xlink:href="#symbol357"
               x="166.40401"
               y="77.977997"
               id="use4118"
               width="100%"
               height="100%" />
            <use
               xlink:href="#symbol7707"
               x="171.06807"
               y="77.977997"
               id="use1935"
               width="100%"
               height="100%" />
          </g>
          <g
             style="fill:#000000;fill-opacity:1"
             id="g4402">
            <use
               xlink:href="#symbol2234"
               x="174.62801"
               y="78.973999"
               id="use6317"
               width="100%"
               height="100%" />
          </g>
          <path
             style="fill:none;stroke:#000000;stroke-width:0.398;stroke-linecap:butt;stroke-linejoin:miter;stroke-miterlimit:10;stroke-opacity:1"
             d="M -0.00165625,0.0016875 H 12.580375"
             transform="matrix(1,0,0,-1,166.404,79.572)"
             id="path4476" />
          <g
             style="fill:#000000;fill-opacity:1"
             id="g6751">
            <use
               xlink:href="#symbol7707"
               x="169.08701"
               y="85.498001"
               id="use5164"
               width="100%"
               height="100%" />
          </g>
          <g
             style="fill:#000000;fill-opacity:1"
             id="g1107">
            <use
               xlink:href="#symbol5945"
               x="172.64799"
               y="86.555"
               id="use472"
               width="100%"
               height="100%" />
          </g>
        </g>
      </g>
    </g>
    <g
       id="g19839"
       transform="translate(55.562501,32.279168)">
      <use
         xlink:href="#symbol5379"
         x="93.121002"
         y="77.917"
         id="use19346"
         width="100%"
         height="100%"
         transform="translate(-60.041207,-19.635123)"
         style="fill:#000000;fill-opacity:1" />
      <use
         xlink:href="#symbol5945"
         x="96.901001"
         y="78.973999"
         id="use19350"
         width="100%"
         height="100%"
         transform="translate(-60.041207,-19.635123)"
         style="fill:#000000;fill-opacity:1" />
      <path
         style="fill:none;stroke:#000000;stroke-width:0.398;stroke-linecap:butt;stroke-linejoin:miter;stroke-miterlimit:10;stroke-opacity:1"
         d="m 33.079887,59.935189 h 7.433594"
         id="path19354" />
      <use
         xlink:href="#symbol7707"
         x="93.231003"
         y="85.498001"
         id="use19356"
         width="100%"
         height="100%"
         transform="translate(-60.041207,-19.635123)"
         style="fill:#000000;fill-opacity:1" />
      <use
         xlink:href="#symbol5945"
         x="96.791"
         y="86.555"
         id="use19360"
         width="100%"
         height="100%"
         transform="translate(-60.041207,-19.635123)"
         style="fill:#000000;fill-opacity:1" />
    </g>
    <g
       id="g20684"
       transform="translate(22.918934,-6.3674254)">
      <rect
         style="fill:#ffffff;stroke:#000000;stroke-width:0.304526;stroke-linecap:round;stroke-linejoin:round;stroke-miterlimit:3.9"
         id="rect31"
         width="128.69617"
         height="89.024101"
         x="-79.484787"
         y="99.107605" />
      <path
         style="fill:none;stroke:#000000;stroke-width:0.264583px;stroke-linecap:butt;stroke-linejoin:miter;stroke-opacity:1"
         d="M -47.938199,188.13171 C -15.554946,166.04462 16.828244,143.95756 49.21138,121.87055"
         id="path70"
         inkscape:path-effect="#path-effect72"
         inkscape:original-d="m -47.938199,188.13171 c 32.38346,-22.08679 64.766651,-44.17384 97.149579,-66.26116"
         sodipodi:nodetypes="cc" />
      <text
         xml:space="preserve"
         style="font-size:8.46667px;line-height:1.25;font-family:'Latin Modern Roman';-inkscape-font-specification:'Latin Modern Roman, ';text-align:center;letter-spacing:0px;text-anchor:middle;stroke-width:0.264583"
         x="-17.927052"
         y="129.66808"
         id="text935"><tspan
           sodipodi:role="line"
           id="tspan933"
           style="stroke-width:0.264583"
           x="-17.927052"
           y="129.66808">A persiste</tspan></text>
      <text
         xml:space="preserve"
         style="font-size:8.46667px;line-height:1.25;font-family:'Latin Modern Roman';-inkscape-font-specification:'Latin Modern Roman, ';text-align:center;letter-spacing:0px;text-anchor:middle;stroke-width:0.264583"
         x="15.400826"
         y="170.76984"
         id="text1759"><tspan
           sodipodi:role="line"
           id="tspan1757"
           style="stroke-width:0.264583"
           x="15.400827"
           y="170.76984">A se extingue</tspan></text>
      <g
         id="g17706"
         transform="translate(-210.07924,-104.775)">
        <use
           xlink:href="#symbol6989"
           x="93.121002"
           y="77.877998"
           id="use17696"
           width="100%"
           height="100%"
           transform="translate(27.859216,124.18649)"
           style="fill:#000000;fill-opacity:1" />
        <use
           xlink:href="#symbol1834"
           x="96.901001"
           y="78.874001"
           id="use17698"
           width="100%"
           height="100%"
           transform="translate(27.859216,124.18649)"
           style="fill:#000000;fill-opacity:1" />
        <path
           style="fill:none;stroke:#000000;stroke-width:0.398;stroke-linecap:butt;stroke-linejoin:miter;stroke-miterlimit:10;stroke-opacity:1"
           d="m 120.98031,203.65915 h 8.13672"
           id="path17700"
           sodipodi:nodetypes="cc" />
        <use
           xlink:href="#symbol7744"
           x="93.231003"
           y="85.398003"
           id="use17702"
           width="100%"
           height="100%"
           transform="translate(27.859216,124.18649)"
           style="fill:#000000;fill-opacity:1" />
        <use
           xlink:href="#symbol1834"
           x="96.791"
           y="86.394997"
           id="use17704"
           width="100%"
           height="100%"
           transform="translate(27.859216,124.18649)"
           style="fill:#000000;fill-opacity:1" />
      </g>
      <use
         xlink:href="#symbol357"
         x="166.40401"
         y="77.977997"
         id="use20491"
         width="100%"
         height="100%"
         transform="translate(-123.22573,116.02684)"
         style="fill:#000000;fill-opacity:1" />
      <g
         id="g20663"
         transform="translate(-171.45004,-10.054166)">
        <use
           xlink:href="#symbol6989"
           x="93.121002"
           y="77.877998"
           id="use20653"
           width="100%"
           height="100%"
           transform="translate(27.859216,124.18649)"
           style="fill:#000000;fill-opacity:1" />
        <use
           xlink:href="#symbol1834"
           x="96.901001"
           y="78.874001"
           id="use20655"
           width="100%"
           height="100%"
           transform="translate(27.859216,124.18649)"
           style="fill:#000000;fill-opacity:1" />
        <path
           style="fill:none;stroke:#000000;stroke-width:0.398;stroke-linecap:butt;stroke-linejoin:miter;stroke-miterlimit:10;stroke-opacity:1"
           d="m 120.98031,203.65915 h 8.13672"
           id="path20657"
           sodipodi:nodetypes="cc" />
        <use
           xlink:href="#symbol7744"
           x="93.231003"
           y="85.398003"
           id="use20659"
           width="100%"
           height="100%"
           transform="translate(27.859216,124.18649)"
           style="fill:#000000;fill-opacity:1" />
        <use
           xlink:href="#symbol1834"
           x="96.791"
           y="86.394997"
           id="use20661"
           width="100%"
           height="100%"
           transform="translate(27.859216,124.18649)"
           style="fill:#000000;fill-opacity:1" />
      </g>
    </g>
    <rect
       style="fill:#ffffff;stroke:#000000;stroke-width:0.304526;stroke-linecap:round;stroke-linejoin:round;stroke-miterlimit:3.9"
       id="rect23221"
       width="128.69617"
       height="89.024101"
       x="-16.538065"
       y="255.47243" />
    <path
       style="fill:none;stroke:#000000;stroke-width:0.264583px;stroke-linecap:butt;stroke-linejoin:miter;stroke-opacity:1"
       d="m 220.11367,183.24764 c 0,0 0,0 0,-0.45108 0,-0.45107 0,-1.35345 0,-2.29672 0,-0.94327 0,-1.92738 0,-2.91177"
       id="path23586"
       inkscape:path-effect="#path-effect23588"
       inkscape:original-d="m 220.11367,183.24764 c 0,2.6e-4 0,2.6e-4 0,-1e-5 0,-0.90214 0,-1.80452 0,-2.70717 0,-0.98389 0,-1.968 0,-2.95239" />
  </g>
  <g
     inkscape:groupmode="layer"
     id="layer2"
     inkscape:label="latex"
     transform="translate(-6.262604,-3.3660196)" />
</svg>
